<?xml version="1.0" standalone="no"?>
<!DOCTYPE svg PUBLIC "-//W3C//DTD SVG 1.1//EN" "http://www.w3.org/Graphics/SVG/1.1/DTD/svg11.dtd" >
<svg xmlns="http://www.w3.org/2000/svg">
<metadata>
Created by FontPrep 20130207 at Thu Nov  6 16:05:46 2014
 By SkyNet
Copyright (C) 2004, 2009 Hoefler &#38; Frere-Jones. http://www.typography.com
</metadata>
<defs>
<font id="e5f1fa838ba4f3e5059cea69f9b0aff4" horiz-adv-x='1024' >
  <font-face 
    font-family="Tungsten-Semibold"
    font-weight="375"
    font-stretch="normal"
    units-per-em="2048"
    panose-1="0 0 0 0 0 0 0 0 0 0"
    ascent="1638"
    descent="-410"
    x-height="1124"
    cap-height="1434"
    bbox="-51 -453 1319 1790"
    underline-thickness="102"
    underline-position="-102"
    unicode-range="U+0020-FB04"
  />
<missing-glyph 
d="M512 492l-367 -799h734zM922 1384l-353 -770l353 -770v1540zM102 -156l353 770l-353 770v-1540zM145 1536l367 -799l367 799h-734zM0 -410v2048h1024v-2048h-1024z" />
    <glyph glyph-name="f_f" unicode="ff" horiz-adv-x="845" 
d="M502 1124v107q0 223 223 223h115v-178h-74q-57 0 -57 -57v-95h125v-180h-125v-944h-207v944h-66v180h66zM96 1124v107q0 223 223 223h115v-178h-74q-57 0 -57 -57v-95h115v-180h-115v-944h-207v944h-63v180h63z" />
    <glyph glyph-name="fi" unicode="fi" horiz-adv-x="776" 
d="M96 1124v107q0 223 223 223h115v-178h-74q-57 0 -57 -57v-95h125v-180h-125v-944h-207v944h-63v180h63zM502 0v1124h207v-1124h-207zM498 1219v200h215v-200h-215z" />
    <glyph glyph-name="fl" unicode="fl" horiz-adv-x="776" 
d="M96 1124v107q0 223 223 223h115v-178h-74q-57 0 -57 -57v-95h125v-180h-125v-944h-207v944h-63v180h63zM502 0v1454h207v-1454h-207z" />
    <glyph glyph-name="f_f_i" unicode="ffi" horiz-adv-x="1181" 
d="M502 1124v107q0 223 223 223h115v-178h-74q-57 0 -57 -57v-95h125v-180h-125v-944h-207v944h-66v180h66zM96 1124v107q0 223 223 223h115v-178h-74q-57 0 -57 -57v-95h115v-180h-115v-944h-207v944h-63v180h63zM909 0v1124h207v-1124h-207zM905 1219v200h215v-200h-215z
" />
    <glyph glyph-name="f_f_l" unicode="ffl" horiz-adv-x="1181" 
d="M909 0v1454h207v-1454h-207zM502 1124v107q0 223 223 223h115v-178h-74q-57 0 -57 -57v-95h125v-180h-125v-944h-207v944h-66v180h66zM96 1124v107q0 223 223 223h115v-178h-74q-57 0 -57 -57v-95h115v-180h-115v-944h-207v944h-63v180h63z" />
    <glyph glyph-name=".notdef" 
d="M512 492l-367 -799h734zM922 1384l-353 -770l353 -770v1540zM102 -156l353 770l-353 770v-1540zM145 1536l367 -799l367 799h-734zM0 -410v2048h1024v-2048h-1024z" />
    <glyph glyph-name=".null" horiz-adv-x="0" 
 />
    <glyph glyph-name="nonmarkingreturn" horiz-adv-x="681" 
 />
    <glyph glyph-name="space" unicode=" " horiz-adv-x="260" 
 />
    <glyph glyph-name="exclam" unicode="!" horiz-adv-x="348" 
d="M276 272v-272h-204v272h204zM68 1434h211v-330l-56 -698h-98l-57 698v330z" />
    <glyph glyph-name="quotedbl" unicode="&#x22;" horiz-adv-x="534" 
d="M512 1434l-84 -549h-137l33 549h188zM256 1434l-84 -549h-135l31 549h188z" />
    <glyph glyph-name="numbersign" unicode="#" horiz-adv-x="718" 
d="M293 893v-373l133 35v373zM590 1438v-240l98 27v-228l-98 -26v-373l98 27v-228l-98 -26v-375h-164v332l-133 -35v-297h-164v254l-98 -25v228l98 24v373l-98 -25v228l98 24v361h164v-318l133 35v283h164z" />
    <glyph glyph-name="dollar" unicode="$" horiz-adv-x="733" 
d="M440 1563v-125q231 -14 232 -260v-256h-211v245q0 84 -80 84h-27q-80 0 -80 -84v-157q0 -72 64 -117l211 -154q71 -51 99 -105t28 -140v-236q0 -250 -236 -262v-133h-145v133q-233 12 -234 260v299h209v-289q0 -84 82 -84h31q80 0 80 84v197q0 70 -62 117l-215 155
q-72 51 -98 107t-27 139v195q0 246 232 262v125h147z" />
    <glyph glyph-name="percent" unicode="%" horiz-adv-x="927" 
d="M674 715h-33q-51 0 -51 -60v-456q0 -59 53 -60h31q53 0 53 60v456q0 60 -53 60zM287 1294h-33q-53 0 -53 -59v-457q0 -59 53 -59h33q51 0 51 59v457q0 59 -51 59zM305 573h-82q-174 0 -174 179v514q0 180 174 180h90q174 0 174 -180v-314l144 486h145l-192 -582
q25 4 39 4h82q176 0 176 -178v-514q0 -180 -176 -180h-89q-176 0 -176 180v311l-143 -483h-143l190 579q-12 -2 -39 -2z" />
    <glyph glyph-name="ampersand" unicode="&#x26;" horiz-adv-x="890" 
d="M248 520v-268q0 -76 74 -76h43q35 0 52 18t34 64l30 86l-168 311q-65 -49 -65 -135zM350 -12h-61q-250 0 -250 250v288q0 160 96 242l80 70l-47 86q-49 92 -49 211v53q0 258 256 258h76q256 0 256 -254v-203h-207v189q0 76 -76 75h-18q-78 0 -78 -75v-50q0 -74 34 -139
l218 -403l82 264h208l-159 -479l202 -371h-229l-82 150q-39 -88 -92 -125t-160 -37z" />
    <glyph glyph-name="quotesingle" unicode="'" horiz-adv-x="284" 
d="M262 1434l-84 -549h-141l31 549h194z" />
    <glyph glyph-name="parenleft" unicode="(" horiz-adv-x="421" 
d="M63 870q0 258 46 383q45 125 186 267l113 -47q-111 -154 -145 -262t-34 -339v-311q0 -231 34 -339t145 -261l-113 -47q-141 141 -186 266t-46 383v307z" />
    <glyph glyph-name="parenright" unicode=")" horiz-adv-x="421" 
d="M358 870v-307q0 -258 -45 -383t-186 -266l-113 47q111 153 145 261t34 339v311q0 231 -34 339t-145 262l113 47q141 -140 186 -266t45 -384z" />
    <glyph glyph-name="asterisk" unicode="*" horiz-adv-x="546" 
d="M518 1350v-129l-149 -76l149 -76v-129h-6l-184 107l4 -195h-117l4 195l-184 -107h-6v129l147 76l-147 76v129h6l184 -107l-4 195h117l-6 -195l186 107h6z" />
    <glyph glyph-name="plus" unicode="+" horiz-adv-x="641" 
d="M238 426v223h-218v158h218v223h168v-223h217v-158h-217v-223h-168z" />
    <glyph glyph-name="comma" unicode="," horiz-adv-x="309" 
d="M258 272v-168q0 -84 -13 -127t-65 -114l-47 -70l-84 25l27 55q37 86 47 127h-72v272h207z" />
    <glyph glyph-name="hyphen" unicode="-" horiz-adv-x="436" 
d="M27 678h383v-191h-383v191z" />
    <glyph glyph-name="period" unicode="." horiz-adv-x="309" 
d="M258 272v-272h-207v272h207z" />
    <glyph glyph-name="slash" unicode="/" horiz-adv-x="436" 
d="M432 1499l-266 -1565h-160l266 1565h160z" />
    <glyph glyph-name="zero" unicode="0" horiz-adv-x="763" 
d="M485 1169q0 84 -82 84h-41q-84 0 -83 -84v-905q0 -84 83 -84h41q82 0 82 84v905zM702 254q0 -266 -266 -266h-108q-266 0 -267 266v926q0 266 267 266h108q266 0 266 -266v-926z" />
    <glyph glyph-name="one" unicode="1" horiz-adv-x="440" 
d="M360 1440v-1440h-210v1145h-136v160q66 7 105 29t78 73l24 33h139z" />
    <glyph glyph-name="two" unicode="2" horiz-adv-x="716" 
d="M451 1169q0 84 -80 84h-27q-82 0 -82 -84v-254h-209v265q0 266 264 266h86q264 0 265 -266v-199q0 -78 -24 -141t-87 -142l-231 -290q-59 -76 -60 -158v-51h402v-199h-619v258q0 80 25 142t88 143l231 291q57 72 58 137v198z" />
    <glyph glyph-name="three" unicode="3" horiz-adv-x="735" 
d="M459 264v283q0 84 -80 84h-191v196h187q80 0 80 82v260q0 84 -80 84h-33q-82 0 -82 -84v-188h-209v199q0 266 266 266h89q266 0 266 -266v-226q0 -168 -119 -213q123 -35 123 -184v-303q0 -266 -266 -266h-99q-264 0 -264 264v227h209v-215q0 -84 84 -84h35q84 0 84 84z
" />
    <glyph glyph-name="four" unicode="4" horiz-adv-x="716" 
d="M406 436v694l-201 -694h201zM29 246v211l286 977h287v-998h103v-190h-103v-246h-196v246h-377z" />
    <glyph glyph-name="five" unicode="5" horiz-adv-x="733" 
d="M680 690v-436q0 -266 -264 -266h-92q-262 0 -263 264v254h211v-242q0 -84 82 -84h27q82 0 82 84v369q0 90 -76 90q-61 0 -125 -72h-192v783h589v-199h-387l-4 -385q88 74 190 74t162 -62t60 -172z" />
    <glyph glyph-name="six" unicode="6" horiz-adv-x="747" 
d="M279 264q0 -84 79 -84h37q80 0 80 84v322q0 86 -84 86q-63 0 -112 -23v-385zM279 1169v-346q80 43 170 43h10q109 0 170 -66t61 -171v-375q0 -266 -266 -266h-96q-266 0 -267 266v926q0 266 267 266h94q262 0 262 -262v-197h-211v182q0 84 -80 84h-35q-79 0 -79 -84z" />
    <glyph glyph-name="seven" unicode="7" horiz-adv-x="604" 
d="M23 1235v199h546v-215l-268 -1219h-213l272 1235h-337z" />
    <glyph glyph-name="eight" unicode="8" horiz-adv-x="743" 
d="M356 825h33q82 0 82 84v265q0 82 -82 81h-33q-84 0 -84 -81v-265q0 -84 84 -84zM270 557v-297q0 -82 84 -82h37q82 0 82 82v297q0 82 -82 82h-37q-84 0 -84 -82zM328 1446h88q266 0 266 -266v-222q0 -168 -119 -213q123 -35 123 -184v-307q0 -266 -266 -266h-96
q-266 0 -267 266v307q0 150 123 184q-119 45 -119 213v222q1 266 267 266z" />
    <glyph glyph-name="nine" unicode="9" horiz-adv-x="745" 
d="M467 1169q0 84 -80 84h-33q-80 0 -80 -84v-338q0 -86 82 -86q66 0 111 23v401zM387 180q80 0 80 84v328q-82 -41 -168 -41h-8q-109 -1 -170 65t-62 172v392q0 266 267 266h92q266 0 266 -266v-926q0 -266 -266 -266h-92q-135 0 -200 63t-65 199v180h211v-166
q0 -84 80 -84h35z" />
    <glyph glyph-name="colon" unicode=":" horiz-adv-x="309" 
d="M258 1122v-272h-207v272h207zM258 272v-272h-207v272h207z" />
    <glyph glyph-name="semicolon" unicode=";" horiz-adv-x="309" 
d="M258 1122v-272h-207v272h207zM258 272v-168q0 -84 -13 -127t-65 -114l-47 -70l-84 25l27 55q37 86 47 127h-72v272h207z" />
    <glyph glyph-name="less" unicode="&#x3c;" horiz-adv-x="643" 
d="M31 838l565 194v-174l-422 -127l422 -123v-180l-565 193v217z" />
    <glyph glyph-name="equal" unicode="=" horiz-adv-x="643" 
d="M31 659h581v-159h-581v159zM31 956h581v-159h-581v159z" />
    <glyph glyph-name="greater" unicode="&#x3e;" horiz-adv-x="643" 
d="M612 625l-565 -195v174l422 127l-422 123v180l565 -192v-217z" />
    <glyph glyph-name="question" unicode="?" horiz-adv-x="673" 
d="M422 272v-272h-205v272h205zM422 977v192q0 84 -80 84h-27q-82 0 -82 -84v-245h-198v256q0 266 266 266h72q266 0 266 -266v-195q0 -74 -24 -123t-91 -125l-84 -96q-37 -43 -37 -123v-129h-167v207q0 78 17 118q18 40 77 103l43 49q49 55 49 111z" />
    <glyph glyph-name="at" unicode="@" horiz-adv-x="1019" 
d="M492 217q35 0 81 29v295l-88 -33q-47 -18 -47 -76v-160q1 -55 54 -55zM799 61h-70q-106 0 -139 82q-76 -84 -158 -84q-160 0 -160 162v223q0 82 29 124t100 67l172 57v166q0 59 -57 60h-10q-59 0 -60 -60v-123h-163v144q0 193 198 192h62q197 0 196 -192v-697
q0 -51 49 -51h13q76 0 76 102v713q-1 146 -57 206t-189 60h-242q-133 0 -189 -59t-57 -207v-764q1 -146 57 -206t189 -60h494v-70h-494q-172 0 -246 76t-73 260v764q0 182 74 259q75 77 245 77h242q170 0 245 -77t74 -259v-715q1 -170 -151 -170z" />
    <glyph glyph-name="A" unicode="A" horiz-adv-x="751" 
d="M369 1137l-90 -717h178zM520 1436l207 -1436h-217l-29 225h-227l-27 -225h-202l204 1436h291z" />
    <glyph glyph-name="B" unicode="B" horiz-adv-x="747" 
d="M283 637v-444h108q82 0 82 81v273q0 90 -90 90h-100zM469 1159q0 82 -82 82h-104v-418h96q90 0 90 90v246zM690 530v-264q0 -266 -266 -266h-358v1434h354q266 0 266 -267v-211q0 -174 -123 -219q127 -43 127 -207z" />
    <glyph glyph-name="C" unicode="C" horiz-adv-x="759" 
d="M487 588h215v-334q0 -266 -266 -266h-108q-266 0 -267 266v926q0 266 267 266h106q264 0 264 -264v-293h-215v280q0 84 -82 84h-36q-84 0 -84 -84v-905q0 -84 84 -84h41q82 0 81 84v324z" />
    <glyph glyph-name="D" unicode="D" horiz-adv-x="770" 
d="M285 1241v-1048h80q125 0 124 126v795q0 127 -124 127h-80zM66 0v1434h329q313 0 314 -314v-807q0 -313 -314 -313h-329z" />
    <glyph glyph-name="E" unicode="E" horiz-adv-x="608" 
d="M66 1434h487v-199h-268v-406h258v-198h-258v-432h272v-199h-491v1434z" />
    <glyph glyph-name="F" unicode="F" horiz-adv-x="585" 
d="M66 1434h477v-199h-258v-414h247v-198h-247v-623h-219v1434z" />
    <glyph glyph-name="G" unicode="G" horiz-adv-x="770" 
d="M498 594h-115v188h328v-528q0 -266 -267 -266h-116q-266 0 -267 266v926q0 266 267 266h114q264 0 265 -264v-232h-215v219q0 84 -82 84h-45q-84 0 -84 -84v-905q0 -84 84 -84h49q84 0 84 84v330z" />
    <glyph glyph-name="H" unicode="H" horiz-adv-x="780" 
d="M285 829h211v605h219v-1434h-219v631h-211v-631h-219v1434h219v-605z" />
    <glyph glyph-name="I" unicode="I" horiz-adv-x="354" 
d="M287 1434v-1434h-219v1434h219z" />
    <glyph glyph-name="J" unicode="J" horiz-adv-x="497" 
d="M432 1434v-1168q0 -266 -266 -266h-133v199h96q84 0 84 84v1151h219z" />
    <glyph glyph-name="K" unicode="K" horiz-adv-x="745" 
d="M285 0h-219v1434h219v-693l227 693h229l-245 -705l237 -729h-235l-213 702v-702z" />
    <glyph glyph-name="L" unicode="L" horiz-adv-x="561" 
d="M66 1434h219v-1235h241v-199h-460v1434z" />
    <glyph glyph-name="M" unicode="M" horiz-adv-x="1062" 
d="M997 1434v-1434h-215v1075l-157 -1075h-213l-158 1079v-1079h-188v1434h327l139 -1010l140 1010h325z" />
    <glyph glyph-name="N" unicode="N" horiz-adv-x="786" 
d="M721 1434v-1434h-238l-223 967l2 -967h-196v1434h256l204 -891l-2 891h197z" />
    <glyph glyph-name="O" unicode="O" horiz-adv-x="772" 
d="M492 1169q0 84 -82 84h-45q-84 0 -84 -84v-905q0 -84 84 -84h45q82 0 82 84v905zM711 254q0 -266 -267 -266h-116q-266 0 -267 266v926q0 266 267 266h116q266 0 267 -266v-926z" />
    <glyph glyph-name="P" unicode="P" horiz-adv-x="718" 
d="M457 1157q0 84 -82 84h-90v-528h90q82 0 82 84v360zM285 520v-520h-219v1434h344q266 0 266 -267v-381q0 -266 -266 -266h-125z" />
    <glyph glyph-name="Q" unicode="Q" horiz-adv-x="772" 
d="M492 1169q0 84 -82 84h-45q-84 0 -84 -84v-905q0 -84 84 -84h45q82 0 82 84v905zM711 1180v-904q0 -170 -109 -225l146 -59l-107 -166l-264 162h-49q-266 0 -267 266v926q0 266 267 266h116q267 0 267 -266z" />
    <glyph glyph-name="R" unicode="R" horiz-adv-x="755" 
d="M473 1157q0 82 -82 82h-106v-473h98q90 0 90 88v303zM694 0h-219v483q0 92 -92 92h-98v-575h-219v1434h360q266 0 266 -267v-270q0 -170 -125 -221q68 -18 98 -62t29 -127v-487z" />
    <glyph glyph-name="S" unicode="S" horiz-adv-x="739" 
d="M686 487v-233q0 -266 -266 -266h-96q-264 0 -265 264v303h213v-295q0 -82 84 -82h29q84 0 84 82v197q0 72 -61 116l-222 162q-72 51 -100 107t-27 141v197q0 266 267 266h92q264 0 264 -264v-260h-215v252q0 82 -82 81h-27q-82 0 -82 -81v-160q0 -74 62 -117l221 -162
q71 -51 99 -105t28 -143z" />
    <glyph glyph-name="T" unicode="T" horiz-adv-x="653" 
d="M436 0h-219v1235h-197v199h613v-199h-197v-1235z" />
    <glyph glyph-name="U" unicode="U" horiz-adv-x="765" 
d="M702 1434v-1180q0 -266 -266 -266h-106q-266 0 -267 266v1180h220v-1170q0 -84 84 -84h34q82 0 82 84v1170h219z" />
    <glyph glyph-name="V" unicode="V" horiz-adv-x="739" 
d="M377 377l131 1057h207l-211 -1436h-268l-211 1436h221z" />
    <glyph glyph-name="W" unicode="W" horiz-adv-x="1130" 
d="M209 0l-174 1434h221l102 -1012l111 1012h211l111 -1010l102 1010h201l-174 -1434h-258l-97 858l-96 -858h-260z" />
    <glyph glyph-name="X" unicode="X" horiz-adv-x="739" 
d="M709 1434l-197 -709l201 -725h-226l-120 514l-129 -514h-211l200 707l-196 727h225l119 -512l123 512h211z" />
    <glyph glyph-name="Y" unicode="Y" horiz-adv-x="706" 
d="M463 0h-219v492l-236 942h225l125 -605l129 605h211l-235 -932v-502z" />
    <glyph glyph-name="Z" unicode="Z" horiz-adv-x="610" 
d="M49 1237v197h522v-215l-317 -1022h317v-197h-532v215l319 1022h-309z" />
    <glyph glyph-name="bracketleft" unicode="[" horiz-adv-x="419" 
d="M403 63v-129h-325v1565h325v-129h-163v-1307h163z" />
    <glyph glyph-name="backslash" unicode="\" horiz-adv-x="436" 
d="M272 -66l-266 1565h160l266 -1565h-160z" />
    <glyph glyph-name="bracketright" unicode="]" horiz-adv-x="419" 
d="M14 -66v129h164v1307h-164v129h326v-1565h-326z" />
    <glyph glyph-name="asciicircum" unicode="^" horiz-adv-x="819" 
d="M481 1434l205 -420h-156l-120 256l-121 -256h-156l205 420h143z" />
    <glyph glyph-name="underscore" unicode="_" horiz-adv-x="937" 
d="M-4 -45h946v-160h-946v160z" />
    <glyph glyph-name="grave" unicode="`" 
d="M604 1432l76 -226h-145l-138 226h207z" />
    <glyph glyph-name="a" unicode="a" horiz-adv-x="688" 
d="M319 174q53 0 107 33v325l-113 -43q-35 -16 -47 -34t-12 -58v-159q-1 -64 65 -64zM53 178v228q0 98 35 148t123 79l215 74v174q0 76 -76 75h-14q-76 0 -76 -75v-140h-194v146q0 250 249 250h66q250 0 250 -250v-887h-203v72q-98 -84 -195 -84h-2q-178 0 -178 190z" />
    <glyph glyph-name="b" unicode="b" horiz-adv-x="710" 
d="M375 176q74 0 74 70v633q0 70 -74 69q-58 0 -109 -37v-698q51 -37 109 -37zM59 0v1454h207v-405q92 88 195 88h2q92 1 142 -55t50 -156v-727q0 -99 -50 -155t-142 -56h-2q-104 0 -197 80v-68h-205z" />
    <glyph glyph-name="c" unicode="c" horiz-adv-x="692" 
d="M436 684v190q0 76 -76 76h-24q-74 0 -74 -76v-624q0 -76 74 -76h26q76 0 76 76v227h203v-239q0 -250 -250 -250h-86q-250 0 -250 250v649q0 250 250 250h86q248 0 248 -248v-205h-203z" />
    <glyph glyph-name="d" unicode="d" horiz-adv-x="710" 
d="M336 948q-74 0 -74 -69v-633q0 -70 74 -70q57 0 108 37v698q-51 37 -108 37zM651 1454v-1454h-205v76q-92 -88 -194 -88h-2q-94 0 -145 55q-50 55 -50 156v727q0 100 50 155t145 56h2q100 0 192 -80v397h207z" />
    <glyph glyph-name="e" unicode="e" horiz-adv-x="688" 
d="M260 879v-222h172v222q0 76 -76 75h-22q-74 1 -74 -75zM635 481h-375v-233q0 -76 74 -76h26q76 0 76 76v119h199v-129q0 -250 -250 -250h-80q-250 0 -250 250v649q0 250 250 250h80q250 0 250 -250v-406z" />
    <glyph glyph-name="f" unicode="f" horiz-adv-x="440" 
d="M96 1124v107q0 223 223 223h115v-178h-74q-57 0 -57 -57v-95h125v-180h-125v-944h-207v944h-63v180h63z" />
    <glyph glyph-name="g" unicode="g" horiz-adv-x="710" 
d="M336 948q-74 0 -74 -69v-517q0 -70 74 -69q57 0 108 35v583q-51 37 -108 37zM651 1124v-1118q0 -240 -241 -239h-134q-217 0 -217 215v65h189v-49q0 -68 63 -68h72q63 0 63 68v188q-92 -78 -194 -77h-2q-94 0 -145 55q-50 55 -50 155v607q0 100 50 155t145 56h2
q102 0 194 -80v67h205z" />
    <glyph glyph-name="h" unicode="h" horiz-adv-x="708" 
d="M59 0v1454h207v-403q94 86 195 86h10q180 0 180 -193v-944h-207v883q0 66 -67 65q-51 0 -111 -35v-913h-207z" />
    <glyph glyph-name="i" unicode="i" horiz-adv-x="335" 
d="M63 0v1124h207v-1124h-207zM59 1219v200h215v-200h-215z" />
    <glyph glyph-name="j" unicode="j" horiz-adv-x="337" 
d="M272 1124v-1138q0 -215 -213 -215h-69v174h18q57 0 58 57v1122h206zM61 1219v200h215v-200h-215z" />
    <glyph glyph-name="k" unicode="k" horiz-adv-x="677" 
d="M266 0h-207v1454h207v-876l191 546h217l-209 -551l201 -573h-222l-178 559v-559z" />
    <glyph glyph-name="l" unicode="l" horiz-adv-x="335" 
d="M63 0v1454h207v-1454h-207z" />
    <glyph glyph-name="m" unicode="m" horiz-adv-x="1079" 
d="M645 0h-209v885q0 63 -61 63q-49 0 -109 -35v-913h-207v1124h205v-73q96 86 195 86h8q119 0 160 -95q100 94 209 95h8q86 1 132 -49t46 -142v-946h-207v885q0 63 -63 63q-50 0 -107 -35v-913z" />
    <glyph glyph-name="n" unicode="n" horiz-adv-x="708" 
d="M59 0v1124h205v-73q96 86 197 86h10q180 0 180 -193v-944h-207v883q0 66 -67 65q-51 0 -111 -35v-913h-207z" />
    <glyph glyph-name="o" unicode="o" horiz-adv-x="704" 
d="M401 -12h-96q-250 0 -250 250v649q0 250 250 250h96q250 0 250 -250v-649q0 -250 -250 -250zM369 950h-33q-74 0 -74 -76v-624q0 -76 74 -76h33q76 0 75 76v624q1 76 -75 76z" />
    <glyph glyph-name="p" unicode="p" horiz-adv-x="710" 
d="M375 176q74 0 74 70v633q0 70 -74 69q-58 0 -109 -37v-698q51 -37 109 -37zM59 -225v1349h205v-75q92 88 197 88h2q92 1 142 -55t50 -156v-727q0 -99 -50 -155t-142 -56h-2q-102 0 -195 80v-293h-207z" />
    <glyph glyph-name="q" unicode="q" horiz-adv-x="710" 
d="M336 948q-74 0 -74 -69v-633q0 -70 74 -70q57 0 108 37v698q-51 37 -108 37zM651 1124v-1349h-207v301q-92 -88 -192 -88h-2q-94 0 -145 55q-50 55 -50 156v727q0 100 50 155t145 56h2q102 0 194 -80v67h205z" />
    <glyph glyph-name="r" unicode="r" horiz-adv-x="460" 
d="M59 0v1124h205v-120q37 70 76 100t98 31v-230q-109 -8 -172 -65v-840h-207z" />
    <glyph glyph-name="s" unicode="s" horiz-adv-x="675" 
d="M422 725v158q0 74 -74 73h-22q-72 0 -72 -73v-88q0 -55 49 -86l195 -123q70 -43 98 -89t29 -124v-135q0 -250 -250 -250h-74q-248 0 -248 248v170h201v-164q0 -74 72 -74h26q74 0 74 74v94q0 55 -49 88l-197 121q-68 43 -96 89t-29 124v129q0 250 250 250h70
q248 0 248 -248v-164h-201z" />
    <glyph glyph-name="t" unicode="t" horiz-adv-x="440" 
d="M309 944v-944h-207v944h-73v180h73v185h207v-185h109v-180h-109z" />
    <glyph glyph-name="u" unicode="u" horiz-adv-x="708" 
d="M649 1124v-1124h-205v74q-94 -86 -196 -86h-8q-182 0 -183 192v944h207v-882q0 -66 68 -66q53 0 110 35v913h207z" />
    <glyph glyph-name="v" unicode="v" horiz-adv-x="673" 
d="M463 0h-252l-188 1124h208l111 -798l111 798h196z" />
    <glyph glyph-name="w" unicode="w" horiz-adv-x="989" 
d="M193 0l-168 1124h204l80 -727l99 727h186l98 -725l80 725h193l-168 -1124h-211l-88 653l-95 -653h-210z" />
    <glyph glyph-name="x" unicode="x" horiz-adv-x="645" 
d="M209 0h-203l184 545l-180 579h217l99 -370l106 370h203l-182 -546l186 -578h-217l-103 373z" />
    <glyph glyph-name="y" unicode="y" horiz-adv-x="669" 
d="M371 -225h-199l59 268l-213 1081h207l109 -684l121 684h198z" />
    <glyph glyph-name="z" unicode="z" horiz-adv-x="567" 
d="M43 944v180h492v-180l-291 -764h291v-180h-502v180l289 764h-279z" />
    <glyph glyph-name="braceleft" unicode="{" horiz-adv-x="526" 
d="M168 569q0 35 -17 51t-57 23l-69 14v123l69 13q39 8 57 23q17 15 17 50v148q0 200 40 286t191 220l113 -47q-120 -143 -148 -215t-28 -242v-84q0 -166 -123 -213q123 -35 123 -184v-117q0 -170 28 -242t148 -215l-113 -47q-152 133 -191 220q-40 87 -40 286v149z" />
    <glyph glyph-name="bar" unicode="|" horiz-adv-x="507" 
d="M330 1563v-1700h-152v1700h152z" />
    <glyph glyph-name="braceright" unicode="}" horiz-adv-x="526" 
d="M358 569v-149q0 -199 -40 -286t-191 -220l-113 47q121 143 149 215t27 242v117q0 150 123 184q-123 47 -123 213v84q0 170 -28 242t-148 215l113 47q151 -132 191 -220t40 -286v-148q0 -35 18 -50t56 -23l70 -13v-123l-70 -14q-38 -7 -56 -23t-18 -51z" />
    <glyph glyph-name="asciitilde" unicode="~" horiz-adv-x="817" 
d="M524 723h2q20 0 21 25v92h121v-142q0 -102 -99 -102h-22q-63 0 -107 31l-94 65q-31 20 -51 21h-2q-20 0 -21 -25v-92h-120v141q0 102 98 103h22q64 0 107 -31l96 -66q29 -20 49 -20z" />
    <glyph glyph-name="uni00A0" unicode="&#xa0;" horiz-adv-x="313" 
 />
    <glyph glyph-name="exclamdown" unicode="&#xa1;" horiz-adv-x="348" 
d="M70 1161v273h204v-273h-204zM279 0h-211v330l55 698h98l58 -698v-330z" />
    <glyph glyph-name="cent" unicode="&#xa2;" horiz-adv-x="686" 
d="M428 850v201q0 76 -74 75h-18q-76 0 -76 -75v-660q0 -76 76 -76h20q74 0 74 76v238h199v-246q0 -227 -209 -250v-139h-148v139q-213 18 -213 250v676q0 229 213 248v133h148v-133q207 -23 207 -248v-209h-199z" />
    <glyph glyph-name="sterling" unicode="&#xa3;" horiz-adv-x="780" 
d="M37 559v195h84v426q0 266 266 266h80q264 0 264 -264v-234h-209v221q0 84 -82 84h-22q-80 0 -80 -84v-415h258v-195h-258v-360h397v-199h-698v199h84v360h-84z" />
    <glyph glyph-name="yen" unicode="&#xa5;" horiz-adv-x="700" 
d="M53 600h170l-211 834h221l121 -592l127 592h207l-213 -834h172v-125h-190v-84h190v-127h-190v-264h-213v264h-191v127h191v84h-191v125z" />
    <glyph glyph-name="section" unicode="&#xa7;" horiz-adv-x="735" 
d="M66 752v34l454 -182q84 -35 117 -80t33 -139v-131q0 -266 -267 -266h-75q-264 0 -265 264v174h205v-168q0 -82 84 -82h25q84 0 84 82v139q0 57 -64 82l-204 84q-80 33 -104 71q-23 38 -23 118zM670 682v-35l-455 182q-84 35 -117 80t-32 140v131q0 266 266 266h76
q264 0 264 -264v-174h-205v168q0 82 -84 81h-27q-82 0 -82 -81v-140q0 -57 64 -82l205 -84q79 -32 103 -70t24 -118z" />
    <glyph glyph-name="dieresis" unicode="&#xa8;" 
d="M471 1417v-211h-170v211h170zM553 1206v211h170v-211h-170z" />
    <glyph glyph-name="copyright" unicode="&#xa9;" horiz-adv-x="1009" 
d="M887 324v786q0 152 -65 220t-201 67h-232q-137 0 -202 -68t-64 -219v-786q1 -152 65 -220t201 -67h232q137 -1 201 67t65 220zM940 1110v-786q0 -178 -77 -257t-242 -79h-232q-166 0 -243 79t-76 257v786q0 178 76 257q77 79 243 79h232q167 0 243 -79t76 -257zM575 618
h164v-247q0 -186 -196 -187h-70q-195 0 -194 187v694q0 186 194 186h66q197 0 196 -186v-219h-164v198q0 53 -53 54h-18q-55 0 -56 -54v-651q0 -55 56 -55h20q55 0 55 55v225z" />
    <glyph glyph-name="ordfeminine" unicode="&#xaa;" horiz-adv-x="464" 
d="M215 954q39 0 70 25v141l-78 -24q-31 -10 -31 -52v-51q0 -39 39 -39zM57 956v97q-1 53 19 83t67 44l142 43v73q0 45 -45 45h-15q-47 0 -47 -45v-55h-115v68q0 137 144 137h53q145 0 146 -137v-459h-119v47q-63 -53 -121 -53h-4q-105 -1 -105 112z" />
    <glyph glyph-name="guillemotleft" unicode="&#xab;" horiz-adv-x="534" 
d="M248 582l110 327h154l-88 -327l88 -326h-150zM8 582l127 327h154l-105 -327l105 -326h-152z" />
    <glyph glyph-name="registered" unicode="&#xae;" horiz-adv-x="606" 
d="M563 1249v-364q0 -107 -47 -153t-151 -46h-123q-104 0 -152 46q-47 46 -47 153v364q0 105 47 151t152 46h123q104 0 151 -46t47 -151zM522 885v364q0 84 -37 121t-120 37h-123q-84 0 -121 -37t-37 -121v-364q0 -86 37 -123t121 -37h123q85 0 121 37t36 123zM350 1208
q0 27 -35 27h-47v-150h43q39 0 39 29v94zM446 981v-166h-96v156q0 33 -39 33h-43v-189h-98v504h164q113 0 112 -92v-105q0 -59 -53 -75q53 -14 53 -66z" />
    <glyph glyph-name="macron" unicode="&#xaf;" 
d="M295 1376h434v-155h-434v155z" />
    <glyph glyph-name="degree" unicode="&#xb0;" horiz-adv-x="526" 
d="M319 698h-110q-78 0 -123 46t-45 128v402q0 82 44 127t124 45h110q78 0 122 -45t44 -127v-402q0 -82 -44 -128t-122 -46zM285 1303h-41q-53 0 -54 -60v-344q0 -57 54 -57h41q53 0 53 57v344q0 60 -53 60z" />
    <glyph glyph-name="plusminus" unicode="&#xb1;" horiz-adv-x="643" 
d="M20 465h603v-160h-603v160zM240 555v223h-217v158h217v223h166v-223h219v-158h-219v-223h-166z" />
    <glyph glyph-name="acute" unicode="&#xb4;" 
d="M385 1206l76 226h207l-138 -226h-145z" />
    <glyph glyph-name="paragraph" unicode="&#xb6;" horiz-adv-x="708" 
d="M643 0h-141v1290h-115v-1290h-6q-319 12 -320 350v731q0 352 353 353h229v-1434z" />
    <glyph glyph-name="periodcentered" unicode="&#xb7;" horiz-adv-x="309" 
d="M258 750v-273h-207v273h207z" />
    <glyph glyph-name="cedilla" unicode="&#xb8;" 
d="M623 0l-41 -201h-183l93 201h131z" />
    <glyph glyph-name="ordmasculine" unicode="&#xba;" horiz-adv-x="479" 
d="M276 844h-73q-143 0 -144 145v311q0 145 144 146h73q145 0 146 -146v-311q-1 -145 -146 -145zM256 1335h-31q-45 0 -45 -47v-287q0 -47 45 -47h31q45 0 45 47v287q0 47 -45 47z" />
    <glyph glyph-name="guillemotright" unicode="&#xbb;" horiz-adv-x="534" 
d="M174 909l111 -327l-115 -326h-150l89 326l-89 327h154zM397 909l127 -327l-129 -326h-151l104 326l-104 327h153z" />
    <glyph glyph-name="questiondown" unicode="&#xbf;" horiz-adv-x="673" 
d="M252 1161v273h205v-273h-205zM252 457v-193q0 -84 80 -84h26q82 0 82 84v246h199v-256q0 -266 -266 -266h-72q-266 0 -266 266v195q-1 75 23 123t92 124l83 97q37 43 37 122v129h168v-206q0 -78 -18 -118t-76 -104l-43 -49q-49 -55 -49 -110z" />
    <glyph glyph-name="Agrave" unicode="&#xc0;" horiz-adv-x="751" 
d="M365 1700l90 -182h-150l-151 182h211zM369 1137l-90 -717h178zM520 1436l207 -1436h-217l-29 225h-227l-27 -225h-202l204 1436h291z" />
    <glyph glyph-name="Aacute" unicode="&#xc1;" horiz-adv-x="751" 
d="M301 1518l88 182h207l-150 -182h-145zM369 1137l-90 -717h178zM520 1436l207 -1436h-217l-29 225h-227l-27 -225h-202l204 1436h291z" />
    <glyph glyph-name="Acircumflex" unicode="&#xc2;" horiz-adv-x="751" 
d="M461 1716l143 -198h-135l-92 79l-92 -79h-135l143 198h168zM369 1137l-90 -717h178zM520 1436l207 -1436h-217l-29 225h-227l-27 -225h-202l204 1436h291z" />
    <glyph glyph-name="Atilde" unicode="&#xc3;" horiz-adv-x="751" 
d="M369 1137l-90 -717h178zM244 1720h18q53 0 96 -24l64 -39q27 -14 45 -15q20 0 20 25v53h121v-100q0 -102 -98 -102h-18q-55 0 -95 24l-65 37q-27 14 -46 14t-20 -24v-51h-121v98q1 104 99 104zM520 1436l207 -1436h-217l-29 225h-227l-27 -225h-202l204 1436h291z" />
    <glyph glyph-name="Adieresis" unicode="&#xc4;" horiz-adv-x="751" 
d="M336 1686v-168h-174v168h174zM418 1518v168h174v-168h-174zM369 1137l-90 -717h178zM520 1436l207 -1436h-217l-29 225h-227l-27 -225h-202l204 1436h291z" />
    <glyph glyph-name="Aring" unicode="&#xc5;" horiz-adv-x="751" 
d="M528 1446v12q0 61 -82 62h-141q-84 0 -84 -62v-12q0 -61 84 -62h141q82 1 82 62zM369 1139l-90 -719h178zM582 1458v-10q0 -68 -52 -94l197 -1354h-217l-29 225h-227l-27 -225h-202l196 1354q-53 27 -53 94v10q0 109 133 109h148q133 0 133 -109z" />
    <glyph glyph-name="AE" unicode="&#xc6;" horiz-adv-x="976" 
d="M436 420v840l-139 -840h139zM924 1434v-199h-269v-406h258v-198h-258v-432h273v-199h-492v225h-172l-37 -225h-202l268 1434h631z" />
    <glyph glyph-name="Ccedilla" unicode="&#xc7;" horiz-adv-x="759" 
d="M487 588h215v-334q0 -254 -243 -266l-39 -189h-182l86 189q-262 2 -263 266v926q0 266 267 266h106q264 0 264 -264v-293h-215v280q0 84 -82 84h-36q-84 0 -84 -84v-905q0 -84 84 -84h41q82 0 81 84v324z" />
    <glyph glyph-name="Egrave" unicode="&#xc8;" horiz-adv-x="608" 
d="M66 1434h487v-199h-268v-406h258v-198h-258v-432h272v-199h-491v1434zM299 1700l90 -182h-149l-152 182h211z" />
    <glyph glyph-name="Eacute" unicode="&#xc9;" horiz-adv-x="608" 
d="M66 1434h487v-199h-268v-406h258v-198h-258v-432h272v-199h-491v1434zM236 1518l88 182h206l-149 -182h-145z" />
    <glyph glyph-name="Ecircumflex" unicode="&#xca;" horiz-adv-x="608" 
d="M395 1716l144 -198h-136l-92 79l-92 -79h-135l143 198h168zM66 1434h487v-199h-268v-406h258v-198h-258v-432h272v-199h-491v1434z" />
    <glyph glyph-name="Edieresis" unicode="&#xcb;" horiz-adv-x="608" 
d="M66 1434h487v-199h-268v-406h258v-198h-258v-432h272v-199h-491v1434zM270 1686v-168h-174v168h174zM352 1518v168h174v-168h-174z" />
    <glyph glyph-name="Igrave" unicode="&#xcc;" horiz-adv-x="354" 
d="M166 1700l90 -182h-150l-151 182h211zM287 1434v-1434h-219v1434h219z" />
    <glyph glyph-name="Iacute" unicode="&#xcd;" horiz-adv-x="354" 
d="M102 1518l88 182h207l-149 -182h-146zM287 1434v-1434h-219v1434h219z" />
    <glyph glyph-name="Icircumflex" unicode="&#xce;" horiz-adv-x="354" 
d="M262 1716l144 -198h-136l-92 79l-92 -79h-135l143 198h168zM287 1434v-1434h-219v1434h219z" />
    <glyph glyph-name="Idieresis" unicode="&#xcf;" horiz-adv-x="354" 
d="M137 1686v-168h-174v168h174zM219 1518v168h174v-168h-174zM287 1434v-1434h-219v1434h219z" />
    <glyph glyph-name="Eth" unicode="&#xd0;" horiz-adv-x="794" 
d="M309 1241v-426h123v-176h-123v-446h80q125 0 125 126v795q0 127 -125 127h-80zM90 0v639h-86v176h86v619h330q313 0 313 -314v-807q0 -313 -313 -313h-330z" />
    <glyph glyph-name="Ntilde" unicode="&#xd1;" horiz-adv-x="786" 
d="M264 1720h19q53 0 96 -24l63 -39q27 -14 45 -15q20 0 21 25v53h121v-100q0 -102 -99 -102h-18q-55 0 -94 24l-66 37q-27 14 -46 14t-19 -24v-51h-121v98q0 104 98 104zM721 1434v-1434h-238l-223 967l2 -967h-196v1434h256l204 -891l-2 891h197z" />
    <glyph glyph-name="Ograve" unicode="&#xd2;" horiz-adv-x="772" 
d="M492 1169q0 84 -82 84h-45q-84 0 -84 -84v-905q0 -84 84 -84h45q82 0 82 84v905zM711 254q0 -266 -267 -266h-116q-266 0 -267 266v926q0 266 267 266h116q266 0 267 -266v-926zM375 1700l90 -182h-150l-151 182h211z" />
    <glyph glyph-name="Oacute" unicode="&#xd3;" horiz-adv-x="772" 
d="M492 1169q0 84 -82 84h-45q-84 0 -84 -84v-905q0 -84 84 -84h45q82 0 82 84v905zM711 254q0 -266 -267 -266h-116q-266 0 -267 266v926q0 266 267 266h116q266 0 267 -266v-926zM311 1518l88 182h207l-149 -182h-146z" />
    <glyph glyph-name="Ocircumflex" unicode="&#xd4;" horiz-adv-x="772" 
d="M471 1716l143 -198h-135l-92 79l-92 -79h-135l143 198h168zM492 1169q0 84 -82 84h-45q-84 0 -84 -84v-905q0 -84 84 -84h45q82 0 82 84v905zM711 254q0 -266 -267 -266h-116q-266 0 -267 266v926q0 266 267 266h116q266 0 267 -266v-926z" />
    <glyph glyph-name="Otilde" unicode="&#xd5;" horiz-adv-x="772" 
d="M254 1720h18q53 0 97 -24l63 -39q27 -14 45 -15q20 0 21 25v53h120v-100q0 -102 -98 -102h-18q-55 0 -94 24l-66 37q-27 14 -46 14t-20 -24v-51h-120v98q0 104 98 104zM492 1169q0 84 -82 84h-45q-84 0 -84 -84v-905q0 -84 84 -84h45q82 0 82 84v905zM711 254
q0 -266 -267 -266h-116q-266 0 -267 266v926q0 266 267 266h116q266 0 267 -266v-926z" />
    <glyph glyph-name="Odieresis" unicode="&#xd6;" horiz-adv-x="772" 
d="M492 1169q0 84 -82 84h-45q-84 0 -84 -84v-905q0 -84 84 -84h45q82 0 82 84v905zM711 254q0 -266 -267 -266h-116q-266 0 -267 266v926q0 266 267 266h116q266 0 267 -266v-926zM346 1686v-168h-174v168h174zM428 1518v168h174v-168h-174z" />
    <glyph glyph-name="multiply" unicode="&#xd7;" horiz-adv-x="643" 
d="M489 442l-170 170l-169 -170l-113 115l168 168l-168 170l117 119l170 -170l170 170l112 -115l-170 -170l170 -168z" />
    <glyph glyph-name="Oslash" unicode="&#xd8;" horiz-adv-x="772" 
d="M365 1253q-84 0 -84 -84l-7 -684l205 738q-18 31 -69 30h-45zM365 180h43q86 0 86 84l2 680l-203 -735q23 -29 72 -29zM711 254q0 -266 -267 -266h-116q-266 0 -267 266v926q0 266 267 266h116q266 0 267 -266v-926z" />
    <glyph glyph-name="Ugrave" unicode="&#xd9;" horiz-adv-x="765" 
d="M702 1434v-1180q0 -266 -266 -266h-106q-266 0 -267 266v1180h220v-1170q0 -84 84 -84h34q82 0 82 84v1170h219zM371 1700l90 -182h-150l-151 182h211z" />
    <glyph glyph-name="Uacute" unicode="&#xda;" horiz-adv-x="765" 
d="M702 1434v-1180q0 -266 -266 -266h-106q-266 0 -267 266v1180h220v-1170q0 -84 84 -84h34q82 0 82 84v1170h219zM307 1518l88 182h207l-149 -182h-146z" />
    <glyph glyph-name="Ucircumflex" unicode="&#xdb;" horiz-adv-x="765" 
d="M467 1716l143 -198h-135l-92 79l-92 -79h-135l143 198h168zM702 1434v-1180q0 -266 -266 -266h-106q-266 0 -267 266v1180h220v-1170q0 -84 84 -84h34q82 0 82 84v1170h219z" />
    <glyph glyph-name="Udieresis" unicode="&#xdc;" horiz-adv-x="765" 
d="M702 1434v-1180q0 -266 -266 -266h-106q-266 0 -267 266v1180h220v-1170q0 -84 84 -84h34q82 0 82 84v1170h219zM342 1686v-168h-174v168h174zM424 1518v168h174v-168h-174z" />
    <glyph glyph-name="Yacute" unicode="&#xdd;" horiz-adv-x="706" 
d="M283 1518l88 182h207l-150 -182h-145zM463 0h-219v492l-236 942h225l125 -605l129 605h211l-235 -932v-502z" />
    <glyph glyph-name="Thorn" unicode="&#xde;" horiz-adv-x="718" 
d="M457 903q0 82 -82 82h-90v-526h90q82 0 82 82v362zM285 266v-266h-219v1434h219v-256h125q266 0 266 -267v-379q0 -266 -266 -266h-125z" />
    <glyph glyph-name="germandbls" unicode="&#xdf;" horiz-adv-x="714" 
d="M662 569v-319q0 -250 -250 -250h-84v186h55q74 0 74 76v305q0 80 -78 80h-51v189h47q78 0 78 77v273q0 80 -78 80h-29q-80 0 -80 -80v-1186h-207v1194q0 260 260 260h78q260 0 260 -260v-227q0 -168 -118 -213q123 -35 123 -185z" />
    <glyph glyph-name="agrave" unicode="&#xe0;" horiz-adv-x="688" 
d="M358 1432l76 -226h-145l-137 226h206zM319 174q53 0 107 33v325l-113 -43q-35 -16 -47 -34t-12 -58v-159q-1 -64 65 -64zM53 178v228q0 98 35 148t123 79l215 74v174q0 76 -76 75h-14q-76 0 -76 -75v-140h-194v146q0 250 249 250h66q250 0 250 -250v-887h-203v72
q-98 -84 -195 -84h-2q-178 0 -178 190z" />
    <glyph glyph-name="aacute" unicode="&#xe1;" horiz-adv-x="688" 
d="M283 1206l75 226h207l-137 -226h-145zM319 174q53 0 107 33v325l-113 -43q-35 -16 -47 -34t-12 -58v-159q-1 -64 65 -64zM53 178v228q0 98 35 148t123 79l215 74v174q0 76 -76 75h-14q-76 0 -76 -75v-140h-194v146q0 250 249 250h66q250 0 250 -250v-887h-203v72
q-98 -84 -195 -84h-2q-178 0 -178 190z" />
    <glyph glyph-name="acircumflex" unicode="&#xe2;" horiz-adv-x="688" 
d="M319 174q53 0 107 33v325l-113 -43q-35 -16 -47 -34t-12 -58v-159q-1 -64 65 -64zM442 1432l136 -226h-136l-84 101l-84 -101h-135l135 226h168zM53 178v228q0 98 35 148t123 79l215 74v174q0 76 -76 75h-14q-76 0 -76 -75v-140h-194v146q0 250 249 250h66
q250 0 250 -250v-887h-203v72q-98 -84 -195 -84h-2q-178 0 -178 190z" />
    <glyph glyph-name="atilde" unicode="&#xe3;" horiz-adv-x="688" 
d="M319 174q53 0 107 33v325l-113 -43q-35 -16 -47 -34t-12 -58v-159q-1 -64 65 -64zM229 1432h17q55 0 98 -31l55 -39q31 -23 45 -23q20 0 21 25v68h121v-121q0 -104 -99 -105h-16q-53 0 -96 31l-58 41q-33 20 -45 20q-20 0 -20 -24v-68h-121v121q0 105 98 105zM53 178v228
q0 98 35 148t123 79l215 74v174q0 76 -76 75h-14q-76 0 -76 -75v-140h-194v146q0 250 249 250h66q250 0 250 -250v-887h-203v72q-98 -84 -195 -84h-2q-178 0 -178 190z" />
    <glyph glyph-name="adieresis" unicode="&#xe4;" horiz-adv-x="688" 
d="M317 1417v-211h-170v211h170zM399 1206v211h170v-211h-170zM319 174q53 0 107 33v325l-113 -43q-35 -16 -47 -34t-12 -58v-159q-1 -64 65 -64zM53 178v228q0 98 35 148t123 79l215 74v174q0 76 -76 75h-14q-76 0 -76 -75v-140h-194v146q0 250 249 250h66q250 0 250 -250
v-887h-203v72q-98 -84 -195 -84h-2q-178 0 -178 190z" />
    <glyph glyph-name="aring" unicode="&#xe5;" horiz-adv-x="688" 
d="M483 1313v12q0 68 -86 68h-78q-86 0 -86 -68v-12q0 -68 89 -68h75q86 0 86 68zM319 174q53 0 107 33v325l-113 -43q-35 -16 -47 -34t-12 -58v-159q-1 -64 65 -64zM535 1325v-12q0 -113 -134 -113h-86q-133 0 -133 113v12q0 113 133 113h86q134 0 134 -113zM53 178v228
q0 98 35 148t123 79l215 74v174q0 76 -76 75h-14q-76 0 -76 -75v-140h-194v146q0 250 249 250h66q250 0 250 -250v-887h-203v72q-98 -84 -195 -84h-2q-178 0 -178 190z" />
    <glyph glyph-name="ae" unicode="&#xe6;" horiz-adv-x="1058" 
d="M631 879v-222h172v222q0 76 -76 75h-22q-74 1 -74 -75zM319 174q53 0 107 33v332l-113 -43q-33 -14 -46 -34t-13 -59v-165q-1 -64 65 -64zM694 1137h62q250 0 250 -250v-406h-375v-233q0 -76 74 -76h26q76 0 76 76v127h199v-137q0 -250 -250 -250h-80q-156 0 -215 96
l-23 -16q-80 -52 -123 -66t-82 -14h-2q-178 0 -178 190v236q0 98 35 147t123 78l215 74v168q0 76 -76 75h-14q-76 0 -76 -75v-140h-194v146q0 250 249 250h47q109 0 166 -68q53 68 166 68z" />
    <glyph glyph-name="ccedilla" unicode="&#xe7;" horiz-adv-x="692" 
d="M436 684v190q0 76 -76 76h-24q-74 0 -74 -76v-624q0 -76 74 -76h26q76 0 76 76v227h203v-239q0 -236 -223 -248l-39 -191h-182l86 189q-227 12 -228 250v649q0 250 250 250h86q248 0 248 -248v-205h-203z" />
    <glyph glyph-name="egrave" unicode="&#xe8;" horiz-adv-x="688" 
d="M346 1432l76 -226h-146l-137 226h207zM260 879v-222h172v222q0 76 -76 75h-22q-74 1 -74 -75zM635 481h-375v-233q0 -76 74 -76h26q76 0 76 76v119h199v-129q0 -250 -250 -250h-80q-250 0 -250 250v649q0 250 250 250h80q250 0 250 -250v-406z" />
    <glyph glyph-name="eacute" unicode="&#xe9;" horiz-adv-x="688" 
d="M270 1206l76 226h207l-137 -226h-146zM260 879v-222h172v222q0 76 -76 75h-22q-74 1 -74 -75zM635 481h-375v-233q0 -76 74 -76h26q76 0 76 76v119h199v-129q0 -250 -250 -250h-80q-250 0 -250 250v649q0 250 250 250h80q250 0 250 -250v-406z" />
    <glyph glyph-name="ecircumflex" unicode="&#xea;" horiz-adv-x="688" 
d="M260 879v-222h172v222q0 76 -76 75h-22q-74 1 -74 -75zM430 1432l135 -226h-135l-84 101l-84 -101h-135l135 226h168zM635 481h-375v-233q0 -76 74 -76h26q76 0 76 76v119h199v-129q0 -250 -250 -250h-80q-250 0 -250 250v649q0 250 250 250h80q250 0 250 -250v-406z" />
    <glyph glyph-name="edieresis" unicode="&#xeb;" horiz-adv-x="688" 
d="M387 1206v211h170v-211h-170zM305 1417v-211h-170v211h170zM260 879v-222h172v222q0 76 -76 75h-22q-74 1 -74 -75zM635 481h-375v-233q0 -76 74 -76h26q76 0 76 76v119h199v-129q0 -250 -250 -250h-80q-250 0 -250 250v649q0 250 250 250h80q250 0 250 -250v-406z" />
    <glyph glyph-name="igrave" unicode="&#xec;" horiz-adv-x="335" 
d="M168 1432l76 -226h-146l-137 226h207zM63 0v1124h207v-1124h-207z" />
    <glyph glyph-name="iacute" unicode="&#xed;" horiz-adv-x="335" 
d="M63 0v1124h207v-1124h-207zM92 1206l76 226h207l-137 -226h-146z" />
    <glyph glyph-name="icircumflex" unicode="&#xee;" horiz-adv-x="335" 
d="M63 0v1124h207v-1124h-207zM252 1432l135 -226h-135l-84 101l-84 -101h-135l135 226h168z" />
    <glyph glyph-name="idieresis" unicode="&#xef;" horiz-adv-x="335" 
d="M63 0v1124h207v-1124h-207zM127 1417v-211h-170v211h170zM209 1206v211h170v-211h-170z" />
    <glyph glyph-name="eth" unicode="&#xf0;" horiz-adv-x="708" 
d="M369 950h-33q-74 0 -74 -76v-624q0 -76 74 -76h33q76 0 75 76v624q1 76 -75 76zM651 1126v-888q0 -250 -250 -250h-96q-250 0 -250 250v684q0 98 50 153t143 55h2q115 0 205 -79v49q-1 43 -17 63t-63 39l-193 84l84 164l168 -74l45 78h164l-86 -137q94 -61 94 -191z" />
    <glyph glyph-name="ntilde" unicode="&#xf1;" horiz-adv-x="708" 
d="M227 1432h17q55 0 98 -31l55 -39q31 -23 45 -23q20 0 21 25v68h121v-121q0 -104 -99 -105h-16q-53 0 -96 31l-58 41q-33 20 -45 20q-20 0 -20 -24v-68h-121v121q0 105 98 105zM59 0v1124h205v-73q96 86 197 86h10q180 0 180 -193v-944h-207v883q0 66 -67 65
q-51 0 -111 -35v-913h-207z" />
    <glyph glyph-name="ograve" unicode="&#xf2;" horiz-adv-x="704" 
d="M354 1432l76 -226h-145l-138 226h207zM401 -12h-96q-250 0 -250 250v649q0 250 250 250h96q250 0 250 -250v-649q0 -250 -250 -250zM369 950h-33q-74 0 -74 -76v-624q0 -76 74 -76h33q76 0 75 76v624q1 76 -75 76z" />
    <glyph glyph-name="oacute" unicode="&#xf3;" horiz-adv-x="704" 
d="M401 -12h-96q-250 0 -250 250v649q0 250 250 250h96q250 0 250 -250v-649q0 -250 -250 -250zM369 950h-33q-74 0 -74 -76v-624q0 -76 74 -76h33q76 0 75 76v624q1 76 -75 76zM279 1206l75 226h207l-137 -226h-145z" />
    <glyph glyph-name="ocircumflex" unicode="&#xf4;" horiz-adv-x="704" 
d="M401 -12h-96q-250 0 -250 250v649q0 250 250 250h96q250 0 250 -250v-649q0 -250 -250 -250zM369 950h-33q-74 0 -74 -76v-624q0 -76 74 -76h33q76 0 75 76v624q1 76 -75 76zM438 1432l135 -226h-135l-84 101l-84 -101h-135l135 226h168z" />
    <glyph glyph-name="otilde" unicode="&#xf5;" horiz-adv-x="704" 
d="M225 1432h17q55 0 98 -31l55 -39q31 -23 45 -23q20 0 21 25v68h121v-121q0 -104 -99 -105h-16q-53 0 -96 31l-58 41q-33 20 -45 20q-20 0 -20 -24v-68h-121v121q0 105 98 105zM369 950h-33q-74 0 -74 -76v-624q0 -76 74 -76h33q76 0 75 76v624q1 76 -75 76zM401 -12h-96
q-250 0 -250 250v649q0 250 250 250h96q250 0 250 -250v-649q0 -250 -250 -250z" />
    <glyph glyph-name="odieresis" unicode="&#xf6;" horiz-adv-x="704" 
d="M401 -12h-96q-250 0 -250 250v649q0 250 250 250h96q250 0 250 -250v-649q0 -250 -250 -250zM369 950h-33q-74 0 -74 -76v-624q0 -76 74 -76h33q76 0 75 76v624q1 76 -75 76zM313 1417v-211h-170v211h170zM395 1206v211h170v-211h-170z" />
    <glyph glyph-name="divide" unicode="&#xf7;" horiz-adv-x="643" 
d="M236 393v174h172v-174h-172zM236 889v174h172v-174h-172zM20 807h603v-158h-603v158z" />
    <glyph glyph-name="oslash" unicode="&#xf8;" horiz-adv-x="704" 
d="M369 950h-33q-76 0 -76 -76l-2 -489l168 545q-18 20 -57 20zM369 174q76 0 75 76l5 498l-173 -555q18 -18 60 -19h33zM401 -12h-96q-250 0 -250 250v649q0 250 250 250h96q250 0 250 -250v-649q0 -250 -250 -250z" />
    <glyph glyph-name="ugrave" unicode="&#xf9;" horiz-adv-x="708" 
d="M354 1432l76 -226h-145l-138 226h207zM649 1124v-1124h-205v74q-94 -86 -196 -86h-8q-182 0 -183 192v944h207v-882q0 -66 68 -66q53 0 110 35v913h207z" />
    <glyph glyph-name="uacute" unicode="&#xfa;" horiz-adv-x="708" 
d="M649 1124v-1124h-205v74q-94 -86 -196 -86h-8q-182 0 -183 192v944h207v-882q0 -66 68 -66q53 0 110 35v913h207zM279 1206l75 226h207l-137 -226h-145z" />
    <glyph glyph-name="ucircumflex" unicode="&#xfb;" horiz-adv-x="708" 
d="M649 1124v-1124h-205v74q-94 -86 -196 -86h-8q-182 0 -183 192v944h207v-882q0 -66 68 -66q53 0 110 35v913h207zM438 1432l135 -226h-135l-84 101l-84 -101h-135l135 226h168z" />
    <glyph glyph-name="udieresis" unicode="&#xfc;" horiz-adv-x="708" 
d="M649 1124v-1124h-205v74q-94 -86 -196 -86h-8q-182 0 -183 192v944h207v-882q0 -66 68 -66q53 0 110 35v913h207zM313 1417v-211h-170v211h170zM395 1206v211h170v-211h-170z" />
    <glyph glyph-name="yacute" unicode="&#xfd;" horiz-adv-x="669" 
d="M262 1206l76 226h207l-137 -226h-146zM371 -225h-199l59 268l-213 1081h207l109 -684l121 684h198z" />
    <glyph glyph-name="thorn" unicode="&#xfe;" horiz-adv-x="710" 
d="M375 176q74 0 74 70v633q0 70 -74 69q-58 0 -109 -37v-698q51 -37 109 -37zM59 1454h207v-405q92 88 195 88h2q92 1 142 -55t50 -156v-727q0 -99 -50 -155t-142 -56h-2q-104 0 -195 82v-295h-207v1679z" />
    <glyph glyph-name="ydieresis" unicode="&#xff;" horiz-adv-x="669" 
d="M297 1417v-211h-170v211h170zM379 1206v211h170v-211h-170zM371 -225h-199l59 268l-213 1081h207l109 -684l121 684h198z" />
    <glyph glyph-name="Amacron" unicode="&#x100;" horiz-adv-x="751" 
d="M160 1665h434v-133h-434v133zM369 1137l-90 -717h178zM520 1436l207 -1436h-217l-29 225h-227l-27 -225h-202l204 1436h291z" />
    <glyph glyph-name="amacron" unicode="&#x101;" horiz-adv-x="688" 
d="M319 174q53 0 107 33v325l-113 -43q-35 -16 -47 -34t-12 -58v-159q-1 -64 65 -64zM141 1376h434v-155h-434v155zM53 178v228q0 98 35 148t123 79l215 74v174q0 76 -76 75h-14q-76 0 -76 -75v-140h-194v146q0 250 249 250h66q250 0 250 -250v-887h-203v72
q-98 -84 -195 -84h-2q-178 0 -178 190z" />
    <glyph glyph-name="Abreve" unicode="&#x102;" horiz-adv-x="751" 
d="M172 1671v37h135v-25q0 -49 58 -49h24q57 0 57 49v25h136v-37q0 -160 -170 -160h-70q-170 0 -170 160zM369 1137l-90 -717h178zM520 1436l207 -1436h-217l-29 225h-227l-27 -225h-202l204 1436h291z" />
    <glyph glyph-name="abreve" unicode="&#x103;" horiz-adv-x="688" 
d="M319 174q53 0 107 33v325l-113 -43q-35 -16 -47 -34t-12 -58v-159q-1 -64 65 -64zM158 1376v56h135v-52q0 -55 57 -55h17q57 0 57 55v52h135v-56q0 -176 -170 -176h-61q-170 0 -170 176zM53 178v228q0 98 35 148t123 79l215 74v174q0 76 -76 75h-14q-76 0 -76 -75v-140
h-194v146q0 250 249 250h66q250 0 250 -250v-887h-203v72q-98 -84 -195 -84h-2q-178 0 -178 190z" />
    <glyph glyph-name="Aogonek" unicode="&#x104;" horiz-adv-x="751" 
d="M369 1137l-90 -717h178zM678 -102h55v-115h-108q-109 0 -109 94v12q0 43 41 107l2 4h-49l-29 225h-227l-27 -225h-202l204 1436h291l207 -1436h-33l-16 -29q-20 -35 -21 -55q0 -18 21 -18z" />
    <glyph glyph-name="aogonek" unicode="&#x105;" horiz-adv-x="688" 
d="M319 174q53 0 107 33v325l-113 -43q-35 -16 -47 -34t-12 -58v-159q-1 -64 65 -64zM53 178v228q0 98 35 148t123 79l215 74v174q0 76 -76 75h-14q-76 0 -76 -75v-140h-194v146q0 250 249 250h66q250 0 250 -250v-887h-27l-16 -29q-20 -35 -21 -55q0 -18 21 -18h55v-115
h-108q-109 0 -109 94v12q0 43 41 107l2 4h-41v72q-98 -84 -195 -84h-2q-178 0 -178 190z" />
    <glyph glyph-name="Cacute" unicode="&#x106;" horiz-adv-x="759" 
d="M307 1518l88 182h207l-149 -182h-146zM487 588h215v-334q0 -266 -266 -266h-108q-266 0 -267 266v926q0 266 267 266h106q264 0 264 -264v-293h-215v280q0 84 -82 84h-36q-84 0 -84 -84v-905q0 -84 84 -84h41q82 0 81 84v324z" />
    <glyph glyph-name="cacute" unicode="&#x107;" horiz-adv-x="692" 
d="M436 684v190q0 76 -76 76h-24q-74 0 -74 -76v-624q0 -76 74 -76h26q76 0 76 76v227h203v-239q0 -250 -250 -250h-86q-250 0 -250 250v649q0 250 250 250h86q248 0 248 -248v-205h-203zM272 1206l76 226h207l-137 -226h-146z" />
    <glyph glyph-name="Cdotaccent" unicode="&#x10a;" horiz-adv-x="759" 
d="M487 588h215v-334q0 -266 -266 -266h-108q-266 0 -267 266v926q0 266 267 266h106q264 0 264 -264v-293h-215v280q0 84 -82 84h-36q-84 0 -84 -84v-905q0 -84 84 -84h41q82 0 81 84v324zM475 1677v-159h-184v159h184z" />
    <glyph glyph-name="cdotaccent" unicode="&#x10b;" horiz-adv-x="692" 
d="M438 1409v-203h-180v203h180zM436 684v190q0 76 -76 76h-24q-74 0 -74 -76v-624q0 -76 74 -76h26q76 0 76 76v227h203v-239q0 -250 -250 -250h-86q-250 0 -250 250v649q0 250 250 250h86q248 0 248 -248v-205h-203z" />
    <glyph glyph-name="Ccaron" unicode="&#x10c;" horiz-adv-x="759" 
d="M610 1716l-143 -198h-168l-143 198h135l92 -82l92 82h135zM487 588h215v-334q0 -266 -266 -266h-108q-266 0 -267 266v926q0 266 267 266h106q264 0 264 -264v-293h-215v280q0 84 -82 84h-36q-84 0 -84 -84v-905q0 -84 84 -84h41q82 0 81 84v324z" />
    <glyph glyph-name="ccaron" unicode="&#x10d;" horiz-adv-x="692" 
d="M436 684v190q0 76 -76 76h-24q-74 0 -74 -76v-624q0 -76 74 -76h26q76 0 76 76v227h203v-239q0 -250 -250 -250h-86q-250 0 -250 250v649q0 250 250 250h86q248 0 248 -248v-205h-203zM567 1432l-135 -226h-168l-135 226h135l84 -101l84 101h135z" />
    <glyph glyph-name="Dcaron" unicode="&#x10e;" horiz-adv-x="770" 
d="M285 1241v-1048h80q125 0 124 126v795q0 127 -124 127h-80zM66 0v1434h329q313 0 314 -314v-807q0 -313 -314 -313h-329zM600 1716l-143 -198h-168l-144 198h136l92 -82l92 82h135z" />
    <glyph glyph-name="dcaron" unicode="&#x10f;" horiz-adv-x="710" 
d="M336 948q-74 0 -74 -69v-633q0 -70 74 -70q57 0 108 37v698q-51 37 -108 37zM651 1454v-1454h-205v76q-92 -88 -194 -88h-2q-94 0 -145 55q-50 55 -50 156v727q0 100 50 155t145 56h2q100 0 192 -80v397h207zM705 1204v250h147l-61 -250h-86z" />
    <glyph glyph-name="Dcroat" unicode="&#x110;" horiz-adv-x="794" 
d="M309 1241v-426h123v-176h-123v-446h80q125 0 125 126v795q0 127 -125 127h-80zM90 0v639h-86v176h86v619h330q313 0 313 -314v-807q0 -313 -313 -313h-330z" />
    <glyph glyph-name="dcroat" unicode="&#x111;" horiz-adv-x="737" 
d="M336 948q-74 0 -74 -69v-633q0 -70 74 -70q57 0 108 37v698q-51 37 -108 37zM651 1454v-121h72v-135h-72v-1198h-205v76q-92 -88 -194 -88h-2q-94 0 -145 55q-50 55 -50 156v727q0 100 50 155t145 56h2q100 0 192 -80v141h-176v135h176v121h207z" />
    <glyph glyph-name="Emacron" unicode="&#x112;" horiz-adv-x="608" 
d="M66 1434h487v-199h-268v-406h258v-198h-258v-432h272v-199h-491v1434zM94 1665h434v-133h-434v133z" />
    <glyph glyph-name="emacron" unicode="&#x113;" horiz-adv-x="688" 
d="M260 879v-222h172v222q0 76 -76 75h-22q-74 1 -74 -75zM129 1376h434v-155h-434v155zM635 481h-375v-233q0 -76 74 -76h26q76 0 76 76v119h199v-129q0 -250 -250 -250h-80q-250 0 -250 250v649q0 250 250 250h80q250 0 250 -250v-406z" />
    <glyph glyph-name="Ebreve" unicode="&#x114;" horiz-adv-x="608" 
d="M66 1434h487v-199h-268v-406h258v-198h-258v-432h272v-199h-491v1434zM106 1671v37h136v-25q0 -49 57 -49h25q57 0 57 49v25h135v-37q0 -160 -170 -160h-70q-170 0 -170 160z" />
    <glyph glyph-name="ebreve" unicode="&#x115;" horiz-adv-x="688" 
d="M260 879v-222h172v222q0 76 -76 75h-22q-74 1 -74 -75zM145 1376v56h136v-52q0 -55 57 -55h16q57 0 58 55v52h135v-56q0 -176 -170 -176h-62q-170 0 -170 176zM635 481h-375v-233q0 -76 74 -76h26q76 0 76 76v119h199v-129q0 -250 -250 -250h-80q-250 0 -250 250v649
q0 250 250 250h80q250 0 250 -250v-406z" />
    <glyph glyph-name="Edotaccent" unicode="&#x116;" horiz-adv-x="608" 
d="M66 1434h487v-199h-268v-406h258v-198h-258v-432h272v-199h-491v1434zM403 1677v-159h-184v159h184z" />
    <glyph glyph-name="edotaccent" unicode="&#x117;" horiz-adv-x="688" 
d="M436 1409v-203h-180v203h180zM260 879v-222h172v222q0 76 -76 75h-22q-74 1 -74 -75zM635 481h-375v-233q0 -76 74 -76h26q76 0 76 76v119h199v-129q0 -250 -250 -250h-80q-250 0 -250 250v649q0 250 250 250h80q250 0 250 -250v-406z" />
    <glyph glyph-name="Eogonek" unicode="&#x118;" horiz-adv-x="608" 
d="M66 1434h487v-199h-268v-406h258v-198h-258v-432h272v-199h-37l-16 -29q-20 -35 -21 -55q0 -18 21 -18h55v-115h-108q-109 0 -109 94v12q0 43 41 107l2 4h-319v1434z" />
    <glyph glyph-name="eogonek" unicode="&#x119;" horiz-adv-x="688" 
d="M260 879v-222h172v222q0 76 -76 75h-22q-74 1 -74 -75zM635 481h-375v-233q0 -76 74 -76h26q76 0 76 76v127h199v-137q0 -86 -29 -140l-63 -127q-18 -35 -19 -55q0 -18 21 -18h53v-115h-106q-109 0 -109 94v12q0 39 35 103q-74 -4 -96 -4h-17q-250 0 -250 250v649
q0 250 250 250h80q250 0 250 -250v-406z" />
    <glyph glyph-name="Ecaron" unicode="&#x11a;" horiz-adv-x="608" 
d="M66 1434h487v-199h-268v-406h258v-198h-258v-432h272v-199h-491v1434zM539 1716l-144 -198h-168l-143 198h135l92 -82l92 82h136z" />
    <glyph glyph-name="ecaron" unicode="&#x11b;" horiz-adv-x="688" 
d="M260 879v-222h172v222q0 76 -76 75h-22q-74 1 -74 -75zM565 1432l-135 -226h-168l-135 226h135l84 -101l84 101h135zM635 481h-375v-233q0 -76 74 -76h26q76 0 76 76v119h199v-129q0 -250 -250 -250h-80q-250 0 -250 250v649q0 250 250 250h80q250 0 250 -250v-406z" />
    <glyph glyph-name="Gbreve" unicode="&#x11e;" horiz-adv-x="770" 
d="M498 594h-115v188h328v-528q0 -266 -267 -266h-116q-266 0 -267 266v926q0 266 267 266h114q264 0 265 -264v-232h-215v219q0 84 -82 84h-45q-84 0 -84 -84v-905q0 -84 84 -84h49q84 0 84 84v330zM182 1671v37h135v-25q0 -49 58 -49h24q57 0 58 49v25h135v-37
q0 -160 -170 -160h-70q-170 0 -170 160z" />
    <glyph glyph-name="gbreve" unicode="&#x11f;" horiz-adv-x="710" 
d="M168 1376v56h135v-52q0 -55 57 -55h17q57 0 57 55v52h135v-56q0 -176 -170 -176h-61q-170 0 -170 176zM336 948q-74 0 -74 -69v-517q0 -70 74 -69q57 0 108 35v583q-51 37 -108 37zM651 1124v-1118q0 -240 -241 -239h-134q-217 0 -217 215v65h189v-49q0 -68 63 -68h72
q63 0 63 68v188q-92 -78 -194 -77h-2q-94 0 -145 55q-50 55 -50 155v607q0 100 50 155t145 56h2q102 0 194 -80v67h205z" />
    <glyph glyph-name="Gdotaccent" unicode="&#x120;" horiz-adv-x="770" 
d="M498 594h-115v188h328v-528q0 -266 -267 -266h-116q-266 0 -267 266v926q0 266 267 266h114q264 0 265 -264v-232h-215v219q0 84 -82 84h-45q-84 0 -84 -84v-905q0 -84 84 -84h49q84 0 84 84v330zM479 1677v-159h-184v159h184z" />
    <glyph glyph-name="gdotaccent" unicode="&#x121;" horiz-adv-x="710" 
d="M459 1409v-203h-180v203h180zM336 948q-74 0 -74 -69v-517q0 -70 74 -69q57 0 108 35v583q-51 37 -108 37zM651 1124v-1118q0 -240 -241 -239h-134q-217 0 -217 215v65h189v-49q0 -68 63 -68h72q63 0 63 68v188q-92 -78 -194 -77h-2q-94 0 -145 55q-50 55 -50 155v607
q0 100 50 155t145 56h2q102 0 194 -80v67h205z" />
    <glyph glyph-name="Gcommaaccent" unicode="&#x122;" horiz-adv-x="770" 
d="M471 -84v-123q0 -71 -13 -107t-57 -89l-41 -50l-57 37l29 45q31 49 35 88h-62v199h166zM498 594h-115v188h328v-528q0 -266 -267 -266h-116q-266 0 -267 266v926q0 266 267 266h114q264 0 265 -264v-232h-215v219q0 84 -82 84h-45q-84 0 -84 -84v-905q0 -84 84 -84h49
q84 0 84 84v330z" />
    <glyph glyph-name="gcommaaccent" unicode="&#x123;" horiz-adv-x="710" 
d="M285 1208v123q0 70 13 107t56 90l41 49l58 -37l-29 -45q-33 -53 -37 -88h64v-199h-166zM336 948q-74 0 -74 -69v-517q0 -70 74 -69q57 0 108 35v583q-51 37 -108 37zM651 1124v-1118q0 -240 -241 -239h-134q-217 0 -217 215v65h189v-49q0 -68 63 -68h72q63 0 63 68v188
q-92 -78 -194 -77h-2q-94 0 -145 55q-50 55 -50 155v607q0 100 50 155t145 56h2q102 0 194 -80v67h205z" />
    <glyph glyph-name="Hbar" unicode="&#x126;" horiz-adv-x="835" 
d="M309 829h211v244h-211v-244zM4 1057v176h86v201h219v-217h211v217h219v-201h92v-176h-92v-1057h-219v631h-211v-631h-219v1057h-86z" />
    <glyph glyph-name="hbar" unicode="&#x127;" horiz-adv-x="735" 
d="M84 0v1198h-72v135h72v121h207v-121h178v-135h-178v-147q94 86 194 86h11q180 0 180 -193v-944h-207v883q0 66 -68 65q-51 0 -110 -35v-913h-207z" />
    <glyph glyph-name="Imacron" unicode="&#x12a;" horiz-adv-x="354" 
d="M-39 1665h434v-133h-434v133zM287 1434v-1434h-219v1434h219z" />
    <glyph glyph-name="imacron" unicode="&#x12b;" horiz-adv-x="335" 
d="M-49 1376h434v-155h-434v155zM63 0v1124h207v-1124h-207z" />
    <glyph glyph-name="Ibreve" unicode="&#x12c;" horiz-adv-x="354" 
d="M-27 1671v37h136v-25q0 -49 57 -49h24q57 0 58 49v25h135v-37q0 -160 -170 -160h-70q-170 0 -170 160zM287 1434v-1434h-219v1434h219z" />
    <glyph glyph-name="ibreve" unicode="&#x12d;" horiz-adv-x="335" 
d="M-33 1376v56h135v-52q0 -55 58 -55h16q57 0 57 55v52h136v-56q0 -176 -170 -176h-62q-170 0 -170 176zM63 0v1124h207v-1124h-207z" />
    <glyph glyph-name="Iogonek" unicode="&#x12e;" horiz-adv-x="354" 
d="M287 1434v-1434h-35l-16 -29q-20 -35 -21 -55q0 -18 21 -18h55v-115h-109q-109 0 -108 94v12q0 43 41 107l2 4h-49v1434h219z" />
    <glyph glyph-name="iogonek" unicode="&#x12f;" horiz-adv-x="335" 
d="M59 1219v200h215v-200h-215zM63 0v1124h207v-1124h-28l-17 -29q-20 -35 -20 -54t20 -19h56v-115h-109q-109 0 -109 94v12q0 43 41 107l2 4h-43z" />
    <glyph glyph-name="Idotaccent" unicode="&#x130;" horiz-adv-x="354" 
d="M270 1677v-159h-184v159h184zM287 1434v-1434h-219v1434h219z" />
    <glyph glyph-name="dotlessi" unicode="&#x131;" horiz-adv-x="335" 
d="M63 0v1124h207v-1124h-207z" />
    <glyph glyph-name="Kcommaaccent" unicode="&#x136;" horiz-adv-x="745" 
d="M451 -84v-123q1 -71 -13 -107t-57 -89l-41 -50l-57 37l28 45q31 49 35 88h-61v199h166zM285 0h-219v1434h219v-693l227 693h229l-245 -705l237 -729h-235l-213 702v-702z" />
    <glyph glyph-name="kcommaaccent" unicode="&#x137;" horiz-adv-x="677" 
d="M426 -84v-123q0 -71 -13 -107t-57 -89l-41 -50l-57 37l29 45q31 49 35 88h-62v199h166zM266 0h-207v1454h207v-876l191 546h217l-209 -551l201 -573h-222l-178 559v-559z" />
    <glyph glyph-name="Lacute" unicode="&#x139;" horiz-adv-x="561" 
d="M86 1434h219v-1235h242v-199h-461v1434zM102 1518l88 182h207l-149 -182h-146z" />
    <glyph glyph-name="lacute" unicode="&#x13a;" horiz-adv-x="335" 
d="M63 0v1454h207v-1454h-207zM94 1513l76 226h207l-137 -226h-146z" />
    <glyph glyph-name="Lcommaaccent" unicode="&#x13b;" horiz-adv-x="561" 
d="M381 -84v-123q0 -71 -13 -107t-57 -89l-41 -50l-57 37l29 45q31 49 34 88h-61v199h166zM86 1434h219v-1235h242v-199h-461v1434z" />
    <glyph glyph-name="lcommaaccent" unicode="&#x13c;" horiz-adv-x="335" 
d="M252 -84v-123q0 -71 -13 -107t-57 -89l-41 -50l-57 37l29 45q31 49 34 88h-61v199h166zM63 0v1454h207v-1454h-207z" />
    <glyph glyph-name="Lcaron" unicode="&#x13d;" horiz-adv-x="561" 
d="M86 1434h219v-1235h242v-199h-461v1434zM344 1184v250h148l-62 -250h-86z" />
    <glyph glyph-name="lcaron" unicode="&#x13e;" horiz-adv-x="335" 
d="M63 0v1454h207v-1454h-207zM326 1204v250h147l-61 -250h-86z" />
    <glyph glyph-name="Ldot" unicode="&#x13f;" horiz-adv-x="555" 
d="M86 1434h219v-1235h242v-199h-461v1434zM520 821v-203h-147v203h147z" />
    <glyph glyph-name="ldot" unicode="&#x140;" horiz-adv-x="446" 
d="M63 0v1454h207v-1454h-207zM459 829v-202h-135v202h135z" />
    <glyph glyph-name="Lslash" unicode="&#x141;" horiz-adv-x="571" 
d="M94 1434h219v-553l117 61v-176l-117 -61v-506h242v-199h-461v588l-106 -56v177l106 55v670z" />
    <glyph glyph-name="lslash" unicode="&#x142;" horiz-adv-x="368" 
d="M80 0v578l-74 -54v170l74 49v711h207v-573l75 55v-170l-75 -51v-715h-207z" />
    <glyph glyph-name="Nacute" unicode="&#x143;" horiz-adv-x="786" 
d="M721 1434v-1434h-238l-223 967l2 -967h-196v1434h256l204 -891l-2 891h197zM322 1518l88 182h206l-149 -182h-145z" />
    <glyph glyph-name="nacute" unicode="&#x144;" horiz-adv-x="708" 
d="M59 0v1124h205v-73q96 86 197 86h10q180 0 180 -193v-944h-207v883q0 66 -67 65q-51 0 -111 -35v-913h-207zM281 1206l75 226h207l-137 -226h-145z" />
    <glyph glyph-name="Ncommaaccent" unicode="&#x145;" horiz-adv-x="786" 
d="M473 -84v-123q0 -71 -13 -107t-57 -89l-41 -50l-57 37l29 45q31 49 35 88h-62v199h166zM721 1434v-1434h-238l-223 967l2 -967h-196v1434h256l204 -891l-2 891h197z" />
    <glyph glyph-name="ncommaaccent" unicode="&#x146;" horiz-adv-x="708" 
d="M440 -84v-123q0 -71 -13 -107t-56 -89l-41 -50l-58 37l29 45q31 49 35 88h-62v199h166zM59 0v1124h205v-73q96 86 197 86h10q180 0 180 -193v-944h-207v883q0 66 -67 65q-51 0 -111 -35v-913h-207z" />
    <glyph glyph-name="Ncaron" unicode="&#x147;" horiz-adv-x="786" 
d="M721 1434v-1434h-238l-223 967l2 -967h-196v1434h256l204 -891l-2 891h197zM625 1716l-144 -198h-168l-143 198h135l92 -82l92 82h136z" />
    <glyph glyph-name="ncaron" unicode="&#x148;" horiz-adv-x="708" 
d="M59 0v1124h205v-73q96 86 197 86h10q180 0 180 -193v-944h-207v883q0 66 -67 65q-51 0 -111 -35v-913h-207zM575 1432l-135 -226h-168l-135 226h135l84 -101l84 101h135z" />
    <glyph glyph-name="Omacron" unicode="&#x14c;" horiz-adv-x="772" 
d="M492 1169q0 84 -82 84h-45q-84 0 -84 -84v-905q0 -84 84 -84h45q82 0 82 84v905zM711 254q0 -266 -267 -266h-116q-266 0 -267 266v926q0 266 267 266h116q266 0 267 -266v-926zM170 1665h434v-133h-434v133z" />
    <glyph glyph-name="omacron" unicode="&#x14d;" horiz-adv-x="704" 
d="M401 -12h-96q-250 0 -250 250v649q0 250 250 250h96q250 0 250 -250v-649q0 -250 -250 -250zM369 950h-33q-74 0 -74 -76v-624q0 -76 74 -76h33q76 0 75 76v624q1 76 -75 76zM137 1376h434v-155h-434v155z" />
    <glyph glyph-name="Obreve" unicode="&#x14e;" horiz-adv-x="772" 
d="M492 1169q0 84 -82 84h-45q-84 0 -84 -84v-905q0 -84 84 -84h45q82 0 82 84v905zM711 254q0 -266 -267 -266h-116q-266 0 -267 266v926q0 266 267 266h116q266 0 267 -266v-926zM182 1671v37h135v-25q0 -49 58 -49h24q57 0 58 49v25h135v-37q0 -160 -170 -160h-70
q-170 0 -170 160z" />
    <glyph glyph-name="obreve" unicode="&#x14f;" horiz-adv-x="704" 
d="M154 1376v56h135v-52q0 -55 57 -55h16q57 0 58 55v52h135v-56q0 -176 -170 -176h-61q-170 0 -170 176zM401 -12h-96q-250 0 -250 250v649q0 250 250 250h96q250 0 250 -250v-649q0 -250 -250 -250zM369 950h-33q-74 0 -74 -76v-624q0 -76 74 -76h33q76 0 75 76v624
q1 76 -75 76z" />
    <glyph glyph-name="Ohungarumlaut" unicode="&#x150;" horiz-adv-x="772" 
d="M428 1518l76 182h182l-147 -182h-111zM242 1518l75 182h181l-148 -182h-108zM492 1169q0 84 -82 84h-45q-84 0 -84 -84v-905q0 -84 84 -84h45q82 0 82 84v905zM711 254q0 -266 -267 -266h-116q-266 0 -267 266v926q0 266 267 266h116q266 0 267 -266v-926z" />
    <glyph glyph-name="ohungarumlaut" unicode="&#x151;" horiz-adv-x="704" 
d="M401 -12h-96q-250 0 -250 250v649q0 250 250 250h96q250 0 250 -250v-649q0 -250 -250 -250zM369 950h-33q-74 0 -74 -76v-624q0 -76 74 -76h33q76 0 75 76v624q1 76 -75 76zM395 1206l64 226h178l-135 -226h-107zM211 1206l65 226h177l-136 -226h-106z" />
    <glyph glyph-name="OE" unicode="&#x152;" horiz-adv-x="1028" 
d="M485 193v1048h-79q-125 0 -125 -127v-795q0 -127 125 -126h79zM375 1434h598v-199h-268v-406h258v-198h-258v-432h272v-199h-602q-313 0 -314 313v807q1 314 314 314z" />
    <glyph glyph-name="oe" unicode="&#x153;" horiz-adv-x="1077" 
d="M649 879v-222h172v222q0 76 -76 75h-22q-74 1 -74 -75zM371 948h-37q-72 0 -72 -71v-629q0 -72 72 -72h37q72 0 73 68v633q1 71 -73 71zM713 1137h61q250 0 250 -250v-406h-375v-233q0 -76 74 -76h27q76 0 75 76v119h199v-129q0 -250 -250 -250h-61q-111 0 -166 65
q-51 -66 -164 -65h-78q-250 0 -250 250v649q0 250 250 250h78q113 0 164 -68q53 68 166 68z" />
    <glyph glyph-name="Racute" unicode="&#x154;" horiz-adv-x="755" 
d="M297 1518l88 182h207l-150 -182h-145zM473 1157q0 82 -82 82h-106v-473h98q90 0 90 88v303zM694 0h-219v483q0 92 -92 92h-98v-575h-219v1434h360q266 0 266 -267v-270q0 -170 -125 -221q68 -18 98 -62t29 -127v-487z" />
    <glyph glyph-name="racute" unicode="&#x155;" horiz-adv-x="460" 
d="M59 0v1124h205v-120q37 70 76 100t98 31v-230q-109 -8 -172 -65v-840h-207zM166 1206l76 226h207l-138 -226h-145z" />
    <glyph glyph-name="Rcommaaccent" unicode="&#x156;" horiz-adv-x="755" 
d="M457 -84v-123q1 -71 -13 -107t-57 -89l-41 -50l-57 37l28 45q31 49 35 88h-61v199h166zM473 1157q0 82 -82 82h-106v-473h98q90 0 90 88v303zM694 0h-219v483q0 92 -92 92h-98v-575h-219v1434h360q266 0 266 -267v-270q0 -170 -125 -221q68 -18 98 -62t29 -127v-487z" />
    <glyph glyph-name="rcommaaccent" unicode="&#x157;" horiz-adv-x="460" 
d="M248 -84v-123q0 -71 -14 -107t-56 -89l-41 -50l-57 37l29 45q31 49 34 88h-61v199h166zM59 0v1124h205v-120q37 70 76 100t98 31v-230q-109 -8 -172 -65v-840h-207z" />
    <glyph glyph-name="Rcaron" unicode="&#x158;" horiz-adv-x="755" 
d="M473 1157q0 82 -82 82h-106v-473h98q90 0 90 88v303zM694 0h-219v483q0 92 -92 92h-98v-575h-219v1434h360q266 0 266 -267v-270q0 -170 -125 -221q68 -18 98 -62t29 -127v-487zM600 1716l-143 -198h-168l-144 198h136l92 -82l92 82h135z" />
    <glyph glyph-name="rcaron" unicode="&#x159;" horiz-adv-x="460" 
d="M59 0v1124h205v-120q37 70 76 100t98 31v-230q-109 -8 -172 -65v-840h-207zM461 1432l-135 -226h-168l-135 226h135l84 -101l84 101h135z" />
    <glyph glyph-name="Sacute" unicode="&#x15a;" horiz-adv-x="741" 
d="M297 1518l88 182h207l-150 -182h-145zM686 487v-233q0 -266 -266 -266h-96q-264 0 -265 264v303h213v-295q0 -82 84 -82h29q84 0 84 82v197q0 72 -61 116l-222 162q-72 51 -100 107t-27 141v197q0 266 267 266h92q264 0 264 -264v-260h-215v252q0 82 -82 81h-27
q-82 0 -82 -81v-160q0 -74 62 -117l221 -162q71 -51 99 -105t28 -143z" />
    <glyph glyph-name="sacute" unicode="&#x15b;" horiz-adv-x="675" 
d="M422 725v158q0 74 -74 73h-22q-72 0 -72 -73v-88q0 -55 49 -86l195 -123q70 -43 98 -89t29 -124v-135q0 -250 -250 -250h-74q-248 0 -248 248v170h201v-164q0 -74 72 -74h26q74 0 74 74v94q0 55 -49 88l-197 121q-68 43 -96 89t-29 124v129q0 250 250 250h70
q248 0 248 -248v-164h-201zM262 1206l76 226h207l-137 -226h-146z" />
    <glyph glyph-name="Scedilla" unicode="&#x15e;" horiz-adv-x="741" 
d="M686 487v-233q0 -252 -237 -264l-39 -191h-183l86 189q-254 6 -254 264v303h213v-295q0 -82 84 -82h29q84 0 84 82v197q0 72 -61 116l-222 162q-72 51 -100 107t-27 141v197q0 266 267 266h92q264 0 264 -264v-260h-215v252q0 82 -82 81h-27q-82 0 -82 -81v-160
q0 -74 62 -117l221 -162q71 -51 99 -105t28 -143z" />
    <glyph glyph-name="scedilla" unicode="&#x15f;" horiz-adv-x="675" 
d="M422 725v158q0 74 -74 73h-22q-72 0 -72 -73v-88q0 -55 49 -86l195 -123q70 -43 98 -89t29 -124v-135q0 -231 -215 -248l-39 -191h-183l86 191q-221 12 -221 246v170h201v-164q0 -74 72 -74h26q74 0 74 74v94q0 55 -49 88l-197 121q-68 43 -96 89t-29 124v129
q0 250 250 250h70q248 0 248 -248v-164h-201z" />
    <glyph glyph-name="Scaron" unicode="&#x160;" horiz-adv-x="741" 
d="M600 1716l-143 -198h-168l-144 198h136l92 -82l92 82h135zM686 487v-233q0 -266 -266 -266h-96q-264 0 -265 264v303h213v-295q0 -82 84 -82h29q84 0 84 82v197q0 72 -61 116l-222 162q-72 51 -100 107t-27 141v197q0 266 267 266h92q264 0 264 -264v-260h-215v252
q0 82 -82 81h-27q-82 0 -82 -81v-160q0 -74 62 -117l221 -162q71 -51 99 -105t28 -143z" />
    <glyph glyph-name="scaron" unicode="&#x161;" horiz-adv-x="675" 
d="M422 725v158q0 74 -74 73h-22q-72 0 -72 -73v-88q0 -55 49 -86l195 -123q70 -43 98 -89t29 -124v-135q0 -250 -250 -250h-74q-248 0 -248 248v170h201v-164q0 -74 72 -74h26q74 0 74 74v94q0 55 -49 88l-197 121q-68 43 -96 89t-29 124v129q0 250 250 250h70
q248 0 248 -248v-164h-201zM557 1432l-135 -226h-168l-135 226h135l84 -101l84 101h135z" />
    <glyph glyph-name="Tcommaaccent" unicode="&#x162;" horiz-adv-x="653" 
d="M412 -84v-123q0 -71 -14 -107t-56 -89l-41 -50l-57 37l28 45q31 49 35 88h-61v199h166zM436 0h-219v1235h-197v199h613v-199h-197v-1235z" />
    <glyph glyph-name="tcommaaccent" unicode="&#x163;" horiz-adv-x="436" 
d="M299 -84v-123q0 -71 -13 -107t-57 -89l-41 -50l-57 37l29 45q31 49 35 88h-62v199h166zM309 944v-944h-207v944h-73v180h73v185h207v-185h109v-180h-109z" />
    <glyph glyph-name="Tcaron" unicode="&#x164;" horiz-adv-x="653" 
d="M436 0h-219v1235h-197v199h613v-199h-197v-1235zM555 1716l-143 -198h-168l-144 198h136l92 -82l92 82h135z" />
    <glyph glyph-name="tcaron" unicode="&#x165;" horiz-adv-x="436" 
d="M309 944v-944h-207v944h-73v180h73v185h207v-185h109v-180h-109zM362 1204v250h148l-61 -250h-87z" />
    <glyph glyph-name="Umacron" unicode="&#x16a;" horiz-adv-x="765" 
d="M702 1434v-1180q0 -266 -266 -266h-106q-266 0 -267 266v1180h220v-1170q0 -84 84 -84h34q82 0 82 84v1170h219zM166 1665h434v-133h-434v133z" />
    <glyph glyph-name="umacron" unicode="&#x16b;" horiz-adv-x="708" 
d="M137 1376h434v-155h-434v155zM649 1124v-1124h-205v74q-94 -86 -196 -86h-8q-182 0 -183 192v944h207v-882q0 -66 68 -66q53 0 110 35v913h207z" />
    <glyph glyph-name="Ubreve" unicode="&#x16c;" horiz-adv-x="765" 
d="M702 1434v-1180q0 -266 -266 -266h-106q-266 0 -267 266v1180h220v-1170q0 -84 84 -84h34q82 0 82 84v1170h219zM178 1667v37h135v-25q0 -49 58 -49h24q57 0 58 49v25h135v-37q0 -160 -170 -160h-70q-170 0 -170 160z" />
    <glyph glyph-name="ubreve" unicode="&#x16d;" horiz-adv-x="708" 
d="M154 1376v56h135v-52q0 -55 57 -55h16q57 0 58 55v52h135v-56q0 -176 -170 -176h-61q-170 0 -170 176zM649 1124v-1124h-205v74q-94 -86 -196 -86h-8q-182 0 -183 192v944h207v-882q0 -66 68 -66q53 0 110 35v913h207z" />
    <glyph glyph-name="Uring" unicode="&#x16e;" horiz-adv-x="765" 
d="M537 1620v8q0 63 -84 64h-140q-84 0 -84 -64v-8q0 -63 84 -64h140q84 1 84 64zM590 1630v-10q0 -109 -133 -109h-148q-133 0 -133 109v10q0 109 133 109h148q133 0 133 -109zM702 1434v-1180q0 -266 -266 -266h-106q-266 0 -267 266v1180h220v-1170q0 -84 84 -84h34
q82 0 82 84v1170h219z" />
    <glyph glyph-name="uring" unicode="&#x16f;" horiz-adv-x="708" 
d="M649 1124v-1124h-205v74q-94 -86 -196 -86h-8q-182 0 -183 192v944h207v-882q0 -66 68 -66q53 0 110 35v913h207zM479 1313v12q0 68 -86 68h-78q-86 0 -86 -68v-12q0 -68 88 -68h76q86 0 86 68zM530 1325v-12q0 -113 -133 -113h-86q-133 0 -133 113v12q0 113 133 113h86
q133 0 133 -113z" />
    <glyph glyph-name="Uhungarumlaut" unicode="&#x170;" horiz-adv-x="765" 
d="M424 1518l76 182h182l-147 -182h-111zM238 1518l75 182h181l-148 -182h-108zM702 1434v-1180q0 -266 -266 -266h-106q-266 0 -267 266v1180h220v-1170q0 -84 84 -84h34q82 0 82 84v1170h219z" />
    <glyph glyph-name="uhungarumlaut" unicode="&#x171;" horiz-adv-x="708" 
d="M395 1206l64 226h178l-135 -226h-107zM211 1206l65 226h177l-136 -226h-106zM649 1124v-1124h-205v74q-94 -86 -196 -86h-8q-182 0 -183 192v944h207v-882q0 -66 68 -66q53 0 110 35v913h207z" />
    <glyph glyph-name="Uogonek" unicode="&#x172;" horiz-adv-x="765" 
d="M702 1434v-1180q0 -260 -253 -266q-31 -48 -31 -69t20 -21h56v-115h-109q-109 0 -109 94v12q0 41 35 99q-248 8 -248 266v1180h220v-1170q0 -84 84 -84h34q82 0 82 84v1170h219z" />
    <glyph glyph-name="uogonek" unicode="&#x173;" horiz-adv-x="708" 
d="M649 1124v-1124h-26l-17 -29q-20 -35 -20 -54t20 -19h56v-115h-109q-109 0 -109 94v12q0 43 41 107l2 4h-43v74q-94 -86 -196 -86h-8q-182 0 -183 192v944h207v-882q0 -66 68 -66q53 0 110 35v913h207z" />
    <glyph glyph-name="Wcircumflex" unicode="&#x174;" horiz-adv-x="1130" 
d="M657 1716l144 -198h-135l-93 79l-92 -79h-135l143 198h168zM209 0l-174 1434h221l102 -1012l111 1012h211l111 -1010l102 1010h201l-174 -1434h-258l-97 858l-96 -858h-260z" />
    <glyph glyph-name="wcircumflex" unicode="&#x175;" horiz-adv-x="989" 
d="M193 0l-168 1124h204l80 -727l99 727h186l98 -725l80 725h193l-168 -1124h-211l-88 653l-95 -653h-210zM590 1432l135 -226h-135l-84 101l-84 -101h-135l135 226h168z" />
    <glyph glyph-name="Ycircumflex" unicode="&#x176;" horiz-adv-x="706" 
d="M442 1716l144 -198h-135l-93 79l-92 -79h-135l143 198h168zM463 0h-219v492l-236 942h225l125 -605l129 605h211l-235 -932v-502z" />
    <glyph glyph-name="ycircumflex" unicode="&#x177;" horiz-adv-x="669" 
d="M422 1432l135 -226h-135l-84 101l-84 -101h-135l135 226h168zM371 -225h-199l59 268l-213 1081h207l109 -684l121 684h198z" />
    <glyph glyph-name="Ydieresis" unicode="&#x178;" horiz-adv-x="706" 
d="M317 1686v-168h-174v168h174zM399 1518v168h174v-168h-174zM463 0h-219v492l-236 942h225l125 -605l129 605h211l-235 -932v-502z" />
    <glyph glyph-name="Zacute" unicode="&#x179;" horiz-adv-x="610" 
d="M233 1518l89 182h206l-149 -182h-146zM49 1237v197h522v-215l-317 -1022h317v-197h-532v215l319 1022h-309z" />
    <glyph glyph-name="zacute" unicode="&#x17a;" horiz-adv-x="567" 
d="M43 944v180h492v-180l-291 -764h291v-180h-502v180l289 764h-279zM219 1206l76 226h207l-137 -226h-146z" />
    <glyph glyph-name="Zdotaccent" unicode="&#x17b;" horiz-adv-x="610" 
d="M49 1237v197h522v-215l-317 -1022h317v-197h-532v215l319 1022h-309zM401 1677v-159h-184v159h184z" />
    <glyph glyph-name="zdotaccent" unicode="&#x17c;" horiz-adv-x="567" 
d="M385 1409v-203h-180v203h180zM43 944v180h492v-180l-291 -764h291v-180h-502v180l289 764h-279z" />
    <glyph glyph-name="Zcaron" unicode="&#x17d;" horiz-adv-x="610" 
d="M49 1237v197h522v-215l-317 -1022h317v-197h-532v215l319 1022h-309zM537 1716l-144 -198h-168l-143 198h135l92 -82l92 82h136z" />
    <glyph glyph-name="zcaron" unicode="&#x17e;" horiz-adv-x="567" 
d="M43 944v180h492v-180l-291 -764h291v-180h-502v180l289 764h-279zM514 1432l-135 -226h-168l-135 226h135l84 -101l84 101h135z" />
    <glyph glyph-name="Aringacute" unicode="&#x1fa;" horiz-adv-x="751" 
d="M301 1608l88 182h207l-150 -182h-145zM528 1446v12q0 61 -82 62h-141q-84 0 -84 -62v-12q0 -61 84 -62h141q82 1 82 62zM369 1139l-90 -719h178zM582 1458v-10q0 -68 -52 -94l197 -1354h-217l-29 225h-227l-27 -225h-202l196 1354q-53 27 -53 94v10q0 109 133 109h148
q133 0 133 -109z" />
    <glyph glyph-name="aringacute" unicode="&#x1fb;" horiz-adv-x="688" 
d="M473 1313v12q0 68 -86 68h-78q-86 0 -86 -68v-12q0 -68 88 -68h76q86 0 86 68zM279 1495l75 225h207l-137 -225h-145zM319 174q53 0 107 33v325l-113 -43q-35 -16 -47 -34t-12 -58v-159q-1 -64 65 -64zM524 1325v-12q0 -113 -133 -113h-86q-133 0 -133 113v12
q0 113 133 113h86q133 0 133 -113zM53 178v228q0 98 35 148t123 79l215 74v174q0 76 -76 75h-14q-76 0 -76 -75v-140h-194v146q0 250 249 250h66q250 0 250 -250v-887h-203v72q-98 -84 -195 -84h-2q-178 0 -178 190z" />
    <glyph glyph-name="AEacute" unicode="&#x1fc;" horiz-adv-x="960" 
d="M463 1518l88 182h207l-150 -182h-145zM422 420v840l-139 -840h139zM909 1434v-199h-268v-406h258v-198h-258v-432h272v-199h-491v225h-172l-37 -225h-203l269 1434h630z" />
    <glyph glyph-name="aeacute" unicode="&#x1fd;" horiz-adv-x="1058" 
d="M453 1206l75 226h207l-137 -226h-145zM631 879v-222h172v222q0 76 -76 75h-22q-74 1 -74 -75zM319 174q53 0 107 33v332l-113 -43q-33 -14 -46 -34t-13 -59v-165q-1 -64 65 -64zM694 1137h62q250 0 250 -250v-406h-375v-233q0 -76 74 -76h26q76 0 76 76v127h199v-137
q0 -250 -250 -250h-80q-156 0 -215 96l-23 -16q-80 -52 -123 -66t-82 -14h-2q-178 0 -178 190v236q0 98 35 147t123 78l215 74v168q0 76 -76 75h-14q-76 0 -76 -75v-140h-194v146q0 250 249 250h47q109 0 166 -68q53 68 166 68z" />
    <glyph glyph-name="Oslashacute" unicode="&#x1fe;" horiz-adv-x="772" 
d="M311 1518l88 182h207l-149 -182h-146zM365 1253q-84 0 -84 -84l-7 -684l205 738q-18 31 -69 30h-45zM365 180h43q86 0 86 84l2 680l-203 -735q23 -29 72 -29zM711 254q0 -266 -267 -266h-116q-266 0 -267 266v926q0 266 267 266h116q266 0 267 -266v-926z" />
    <glyph glyph-name="oslashacute" unicode="&#x1ff;" horiz-adv-x="704" 
d="M279 1206l75 226h207l-137 -226h-145zM369 950h-33q-76 0 -76 -76l-2 -489l168 545q-18 20 -57 20zM369 174q76 0 75 76l5 498l-173 -555q18 -18 60 -19h33zM401 -12h-96q-250 0 -250 250v649q0 250 250 250h96q250 0 250 -250v-649q0 -250 -250 -250z" />
    <glyph glyph-name="Scommaaccent" unicode="&#x218;" horiz-adv-x="741" 
d="M457 -84v-123q1 -71 -13 -107t-57 -89l-41 -50l-57 37l28 45q31 49 35 88h-61v199h166zM686 487v-233q0 -266 -266 -266h-96q-264 0 -265 264v303h213v-295q0 -82 84 -82h29q84 0 84 82v197q0 72 -61 116l-222 162q-72 51 -100 107t-27 141v197q0 266 267 266h92
q264 0 264 -264v-260h-215v252q0 82 -82 81h-27q-82 0 -82 -81v-160q0 -74 62 -117l221 -162q71 -51 99 -105t28 -143z" />
    <glyph glyph-name="scommaaccent" unicode="&#x219;" horiz-adv-x="675" 
d="M422 -84v-123q0 -71 -13 -107t-57 -89l-41 -50l-57 37l29 45q31 49 34 88h-61v199h166zM422 725v158q0 74 -74 73h-22q-72 0 -72 -73v-88q0 -55 49 -86l195 -123q70 -43 98 -89t29 -124v-135q0 -250 -250 -250h-74q-248 0 -248 248v170h201v-164q0 -74 72 -74h26
q74 0 74 74v94q0 55 -49 88l-197 121q-68 43 -96 89t-29 124v129q0 250 250 250h70q248 0 248 -248v-164h-201z" />
    <glyph glyph-name="schwa" unicode="&#x259;" horiz-adv-x="688" 
d="M354 170q74 0 74 76v221h-172v-221q0 -76 76 -76h22zM53 238v405h375v234q0 76 -74 75h-26q-76 0 -76 -75v-119h-199v129q0 250 250 250h80q250 0 250 -250v-649q0 -250 -250 -250h-80q-250 0 -250 250z" />
    <glyph glyph-name="circumflex" unicode="&#x2c6;" 
d="M596 1432l135 -226h-135l-84 101l-84 -101h-135l135 226h168z" />
    <glyph glyph-name="caron" unicode="&#x2c7;" 
d="M731 1432l-135 -226h-168l-135 226h135l84 -101l84 101h135z" />
    <glyph glyph-name="breve" unicode="&#x2d8;" 
d="M311 1376v56h135v-52q0 -55 58 -55h16q57 0 58 55v52h135v-56q0 -176 -170 -176h-62q-170 0 -170 176z" />
    <glyph glyph-name="dotaccent" unicode="&#x2d9;" 
d="M602 1409v-203h-180v203h180z" />
    <glyph glyph-name="ring" unicode="&#x2da;" 
d="M637 1313v12q0 68 -86 68h-78q-86 0 -86 -68v-12q0 -68 88 -68h76q86 0 86 68zM688 1325v-12q0 -113 -133 -113h-86q-133 0 -133 113v12q0 113 133 113h86q133 0 133 -113z" />
    <glyph glyph-name="ogonek" unicode="&#x2db;" 
d="M592 -83q0 -19 20 -19h56v-115h-109q-109 0 -108 94v12q0 43 41 107l26 39h133l-39 -64q-20 -35 -20 -54z" />
    <glyph glyph-name="tilde" unicode="&#x2dc;" 
d="M383 1432h16q55 0 99 -31l55 -39q31 -23 45 -23q20 0 20 25v68h121v-121q0 -104 -98 -105h-16q-53 0 -97 31l-57 41q-33 20 -45 20q-20 0 -20 -24v-68h-121v121q0 105 98 105z" />
    <glyph glyph-name="hungarumlaut" unicode="&#x2dd;" 
d="M502 1206l63 226h178l-135 -226h-106zM317 1206l66 226h176l-135 -226h-107z" />
    <glyph glyph-name="commaaccent" unicode="&#x326;" 
d="M598 -84v-123q0 -71 -13 -107t-57 -89l-41 -50l-57 37l29 45q31 49 35 88h-62v199h166z" />
    <glyph glyph-name="Wgrave" unicode="&#x1e80;" horiz-adv-x="1130" 
d="M209 0l-174 1434h221l102 -1012l111 1012h211l111 -1010l102 1010h201l-174 -1434h-258l-97 858l-96 -858h-260zM563 1700l90 -182h-149l-152 182h211z" />
    <glyph glyph-name="wgrave" unicode="&#x1e81;" horiz-adv-x="989" 
d="M506 1432l76 -226h-146l-137 226h207zM193 0l-168 1124h204l80 -727l99 727h186l98 -725l80 725h193l-168 -1124h-211l-88 653l-95 -653h-210z" />
    <glyph glyph-name="Wacute" unicode="&#x1e82;" horiz-adv-x="1130" 
d="M209 0l-174 1434h221l102 -1012l111 1012h211l111 -1010l102 1010h201l-174 -1434h-258l-97 858l-96 -858h-260zM498 1518l88 182h207l-150 -182h-145z" />
    <glyph glyph-name="wacute" unicode="&#x1e83;" horiz-adv-x="989" 
d="M193 0l-168 1124h204l80 -727l99 727h186l98 -725l80 725h193l-168 -1124h-211l-88 653l-95 -653h-210zM428 1206l76 226h207l-138 -226h-145z" />
    <glyph glyph-name="Wdieresis" unicode="&#x1e84;" horiz-adv-x="1130" 
d="M209 0l-174 1434h221l102 -1012l111 1012h211l111 -1010l102 1010h201l-174 -1434h-258l-97 858l-96 -858h-260zM532 1686v-168h-174v168h174zM614 1518v168h174v-168h-174z" />
    <glyph glyph-name="wdieresis" unicode="&#x1e85;" horiz-adv-x="989" 
d="M193 0l-168 1124h204l80 -727l99 727h186l98 -725l80 725h193l-168 -1124h-211l-88 653l-95 -653h-210zM465 1417v-211h-170v211h170zM547 1206v211h170v-211h-170z" />
    <glyph glyph-name="Ygrave" unicode="&#x1ef2;" horiz-adv-x="706" 
d="M346 1700l90 -182h-149l-152 182h211zM463 0h-219v492l-236 942h225l125 -605l129 605h211l-235 -932v-502z" />
    <glyph glyph-name="ygrave" unicode="&#x1ef3;" horiz-adv-x="669" 
d="M338 1432l76 -226h-146l-137 226h207zM371 -225h-199l59 268l-213 1081h207l109 -684l121 684h198z" />
    <glyph glyph-name="enspace" unicode="&#x2002;" 
 />
    <glyph glyph-name="emspace" unicode="&#x2003;" horiz-adv-x="2048" 
 />
    <glyph glyph-name="threeperemspace" unicode="&#x2004;" horiz-adv-x="681" 
 />
    <glyph glyph-name="fourperemspace" unicode="&#x2005;" horiz-adv-x="512" 
 />
    <glyph glyph-name="thinspace" unicode="&#x2009;" horiz-adv-x="272" 
 />
    <glyph glyph-name="hairspace" unicode="&#x200a;" horiz-adv-x="153" 
 />
    <glyph glyph-name="endash" unicode="&#x2013;" horiz-adv-x="763" 
d="M27 662h710v-158h-710v158z" />
    <glyph glyph-name="emdash" unicode="&#x2014;" horiz-adv-x="1171" 
d="M27 662h1099v-158h-1099v158z" />
    <glyph glyph-name="quoteleft" unicode="&#x2018;" horiz-adv-x="307" 
d="M49 934v186q0 88 13 131t63 121l49 74l84 -25l-27 -59q-45 -100 -51 -156h76v-272h-207z" />
    <glyph glyph-name="quoteright" unicode="&#x2019;" horiz-adv-x="307" 
d="M258 1434v-187q0 -88 -13 -132t-65 -120l-47 -73l-84 22l27 62q43 96 51 155h-76v273h207z" />
    <glyph glyph-name="quotesinglbase" unicode="&#x201a;" horiz-adv-x="307" 
d="M258 274v-186q0 -88 -13 -132t-65 -120l-47 -74l-84 23l27 61q43 102 51 156h-76v272h207z" />
    <glyph glyph-name="quotedblleft" unicode="&#x201c;" horiz-adv-x="585" 
d="M49 934v186q0 88 12 132t62 120l49 74l82 -25l-27 -59q-43 -100 -51 -156h76v-272h-203zM332 934v186q0 88 12 132t62 120l49 74l82 -25l-27 -59q-43 -100 -51 -156h76v-272h-203z" />
    <glyph glyph-name="quotedblright" unicode="&#x201d;" horiz-adv-x="585" 
d="M254 1434v-187q0 -90 -13 -134t-63 -118l-47 -73l-82 22l27 62q43 96 51 155h-76v273h203zM537 1434v-187q1 -90 -13 -134t-63 -118l-47 -73l-82 22l24 62q47 104 52 155h-74v273h203z" />
    <glyph glyph-name="quotedblbase" unicode="&#x201e;" horiz-adv-x="585" 
d="M254 274v-186q0 -90 -13 -134t-63 -118l-47 -74l-82 23l27 61q43 102 51 156h-76v272h203zM537 274v-186q1 -90 -13 -134t-63 -118l-47 -74l-82 23l24 61q47 109 52 156h-74v272h203z" />
    <glyph glyph-name="dagger" unicode="&#x2020;" horiz-adv-x="483" 
d="M178 713l4 438l-162 -6v127l162 -8l-4 174h127l-4 -174l162 8v-127l-164 6l6 -438h-127z" />
    <glyph glyph-name="daggerdbl" unicode="&#x2021;" horiz-adv-x="483" 
d="M463 1272v-127l-164 6l4 -225l-4 -226l164 9v-127l-162 6l4 -172h-127l4 172l-162 -6v127l162 -9l-2 226l2 225l-162 -6v127l162 -8l-4 174h127l-4 -174z" />
    <glyph glyph-name="bullet" unicode="&#x2022;" horiz-adv-x="487" 
d="M401 809v-176q0 -115 -127 -115h-61q-127 0 -127 115v176q0 115 127 115h61q127 0 127 -115z" />
    <glyph glyph-name="ellipsis" unicode="&#x2026;" horiz-adv-x="925" 
d="M874 272v-272h-206v272h206zM565 272v-272h-207v272h207zM258 272v-272h-207v272h207z" />
    <glyph glyph-name="guilsinglleft" unicode="&#x2039;" horiz-adv-x="358" 
d="M8 582l156 327h174l-131 -327l131 -326h-172z" />
    <glyph glyph-name="guilsinglright" unicode="&#x203a;" horiz-adv-x="358" 
d="M195 909l155 -327l-157 -326h-173l132 326l-132 327h175z" />
    <glyph glyph-name="Euro" unicode="&#x20ac;" horiz-adv-x="770" 
d="M33 895h76v285q0 266 266 266h84q264 0 264 -264v-189h-211v176q0 84 -82 84h-24q-80 0 -80 -84v-274h297v-127h-297v-84h297v-127h-297v-293q0 -84 80 -84h28q82 0 82 84v191h211v-201q0 -266 -266 -266h-86q-266 0 -266 266v303h-76v127h76v84h-76v127z" />
    <glyph glyph-name="published" unicode="&#x2117;" horiz-adv-x="1009" 
d="M887 324v786q0 152 -65 220t-201 67h-232q-137 0 -202 -68t-64 -219v-786q1 -152 65 -220t201 -67h232q137 -1 201 67t65 220zM940 1110v-786q0 -178 -77 -257t-242 -79h-232q-166 0 -243 79t-76 257v786q0 178 76 257q77 79 243 79h232q167 0 243 -79t76 -257zM578 1034
q0 55 -58 56h-63v-377h63q57 0 58 53v268zM457 557v-364h-164v1050h254q195 0 194 -186v-314q0 -186 -194 -186h-90z" />
    <glyph glyph-name="servicemark" unicode="&#x2120;" horiz-adv-x="962" 
d="M180 1042v-106q0 -37 39 -37h12q41 0 41 37v63q0 31 -28 52l-111 73q-63 45 -63 109v86q0 121 129 121h53q127 0 127 -121v-105h-107v93q0 37 -41 36h-12q-39 0 -39 -36v-47q0 -31 31 -52l111 -73q59 -41 59 -109v-102q0 -121 -127 -121h-55q-129 0 -129 121v118h110z
M881 1434v-625h-107v436l-72 -436h-100l-70 438v-438h-96v625h158l65 -441l66 441h156z" />
    <glyph glyph-name="trademark" unicode="&#x2122;" horiz-adv-x="925" 
d="M256 809h-115v522h-100v103h315v-103h-100v-522zM846 1434v-625h-109v436l-69 -436h-103l-69 438v-438h-95v625h156l68 -441l65 441h156z" />
    <glyph glyph-name="minus" unicode="&#x2212;" horiz-adv-x="643" 
d="M20 811h603v-166h-603v166z" />
    <glyph glyph-name="Q.alt" horiz-adv-x="772" 
d="M492 1169q0 84 -82 84h-45q-84 0 -84 -84v-909q0 -84 84 -84h45q39 0 55 14l-117 107l72 86l72 -57v843zM711 1180v-893q0 -59 -13 -109l88 -57l-110 -139l-62 61q-68 -55 -186 -55h-100q-266 0 -267 266v926q0 266 267 266h116q267 0 267 -266z" />
    <glyph glyph-name="a.alt" horiz-adv-x="710" 
d="M336 948q-74 0 -74 -69v-633q0 -70 74 -70q57 0 108 37v698q-51 37 -108 37zM651 1124v-1124h-205v76q-92 -88 -194 -88h-2q-94 0 -145 55q-50 55 -50 156v727q0 100 50 155t145 56h2q102 0 192 -82v69h207z" />
    <glyph glyph-name="aacute.alt" horiz-adv-x="710" 
d="M336 948q-74 0 -74 -69v-633q0 -70 74 -70q57 0 108 37v698q-51 37 -108 37zM651 1124v-1124h-205v76q-92 -88 -194 -88h-2q-94 0 -145 55q-50 55 -50 156v727q0 100 50 155t145 56h2q102 0 192 -82v69h207zM293 1206l76 226h206l-137 -226h-145z" />
    <glyph glyph-name="abreve.alt" horiz-adv-x="710" 
d="M168 1376v56h135v-52q0 -55 57 -55h17q57 0 57 55v52h135v-56q0 -176 -170 -176h-61q-170 0 -170 176zM336 948q-74 0 -74 -69v-633q0 -70 74 -70q57 0 108 37v698q-51 37 -108 37zM651 1124v-1124h-205v76q-92 -88 -194 -88h-2q-94 0 -145 55q-50 55 -50 156v727
q0 100 50 155t145 56h2q102 0 192 -82v69h207z" />
    <glyph glyph-name="acircumflex.alt" horiz-adv-x="710" 
d="M336 948q-74 0 -74 -69v-633q0 -70 74 -70q57 0 108 37v698q-51 37 -108 37zM651 1124v-1124h-205v76q-92 -88 -194 -88h-2q-94 0 -145 55q-50 55 -50 156v727q0 100 50 155t145 56h2q102 0 192 -82v69h207zM453 1432l135 -226h-135l-84 101l-84 -101h-135l135 226h168z
" />
    <glyph glyph-name="adieresis.alt" horiz-adv-x="710" 
d="M336 948q-74 0 -74 -69v-633q0 -70 74 -70q57 0 108 37v698q-51 37 -108 37zM651 1124v-1124h-205v76q-92 -88 -194 -88h-2q-94 0 -145 55q-50 55 -50 156v727q0 100 50 155t145 56h2q102 0 192 -82v69h207zM328 1417v-211h-170v211h170zM410 1206v211h170v-211h-170z
" />
    <glyph glyph-name="agrave.alt" horiz-adv-x="710" 
d="M369 1432l75 -226h-145l-137 226h207zM336 948q-74 0 -74 -69v-633q0 -70 74 -70q57 0 108 37v698q-51 37 -108 37zM651 1124v-1124h-205v76q-92 -88 -194 -88h-2q-94 0 -145 55q-50 55 -50 156v727q0 100 50 155t145 56h2q102 0 192 -82v69h207z" />
    <glyph glyph-name="amacron.alt" horiz-adv-x="710" 
d="M152 1376h434v-155h-434v155zM336 948q-74 0 -74 -69v-633q0 -70 74 -70q57 0 108 37v698q-51 37 -108 37zM651 1124v-1124h-205v76q-92 -88 -194 -88h-2q-94 0 -145 55q-50 55 -50 156v727q0 100 50 155t145 56h2q102 0 192 -82v69h207z" />
    <glyph glyph-name="aogonek.alt" horiz-adv-x="710" 
d="M336 948q-74 0 -74 -69v-633q0 -70 74 -70q57 0 108 37v698q-51 37 -108 37zM651 1124v-1124h-26l-17 -29q-20 -35 -20 -54t20 -19h56v-115h-109q-109 0 -109 94v12q0 43 41 107l2 4h-43v76q-92 -88 -194 -88h-2q-94 0 -145 55q-50 55 -50 156v727q0 100 50 155t145 56h2
q102 0 192 -82v69h207z" />
    <glyph glyph-name="aring.alt" horiz-adv-x="710" 
d="M336 948q-74 0 -74 -69v-633q0 -70 74 -70q57 0 108 37v698q-51 37 -108 37zM651 1124v-1124h-205v76q-92 -88 -194 -88h-2q-94 0 -145 55q-50 55 -50 156v727q0 100 50 155t145 56h2q102 0 192 -82v69h207zM494 1313v12q0 68 -86 68h-78q-86 0 -86 -68v-12q0 -68 88 -68
h76q86 0 86 68zM545 1325v-12q0 -113 -133 -113h-86q-133 0 -133 113v12q0 113 133 113h86q133 0 133 -113z" />
    <glyph glyph-name="aringacute.alt" horiz-adv-x="710" 
d="M336 948q-74 0 -74 -69v-633q0 -70 74 -70q57 0 108 37v698q-51 37 -108 37zM651 1124v-1124h-205v76q-92 -88 -194 -88h-2q-94 0 -145 55q-50 55 -50 156v727q0 100 50 155t145 56h2q102 0 192 -82v69h207zM487 1313v12q0 68 -86 68h-77q-86 0 -86 -68v-12q0 -68 88 -68
h75q86 0 86 68zM539 1325v-12q0 -113 -133 -113h-87q-133 0 -133 113v12q0 113 133 113h87q133 0 133 -113zM295 1495l76 225h207l-138 -225h-145z" />
    <glyph glyph-name="atilde.alt" horiz-adv-x="710" 
d="M240 1432h16q55 0 98 -31l56 -39q31 -23 45 -23q20 0 20 25v68h121v-121q0 -104 -98 -105h-17q-53 0 -96 31l-57 41q-33 20 -45 20q-20 0 -21 -24v-68h-121v121q1 105 99 105zM336 948q-74 0 -74 -69v-633q0 -70 74 -70q57 0 108 37v698q-51 37 -108 37zM651 1124v-1124
h-205v76q-92 -88 -194 -88h-2q-94 0 -145 55q-50 55 -50 156v727q0 100 50 155t145 56h2q102 0 192 -82v69h207z" />
    <glyph glyph-name="Oslash.alt" horiz-adv-x="772" 
d="M365 1253q-84 0 -84 -84l-7 -686l205 740q-18 31 -69 30h-45zM365 180h43q86 0 86 84l2 682l-203 -737q23 -29 72 -29zM711 254q0 -266 -267 -266h-106q-55 0 -117 14l-20 -68h-146l49 154q-43 61 -43 166v926q0 266 267 266h108q59 0 113 -16l22 69h146l-49 -153
q43 -61 43 -166v-926z" />
    <glyph glyph-name="oslash.alt" horiz-adv-x="704" 
d="M369 950h-33q-76 0 -76 -76l-2 -493l168 549q-18 20 -57 20zM369 174q76 0 75 76l5 495l-173 -552q18 -18 60 -19h33zM401 -12h-90q-57 0 -104 12l-21 -66h-131l45 138q-45 59 -45 166v649q0 250 250 250h88q59 0 103 -15l22 68h133l-47 -137q47 -63 47 -166v-649
q0 -250 -250 -250z" />
    <glyph glyph-name="Oslashacute.alt" horiz-adv-x="772" 
d="M311 1518l88 182h207l-149 -182h-146zM365 1253q-84 0 -84 -84l-7 -686l205 740q-18 31 -69 30h-45zM365 180h43q86 0 86 84l2 682l-203 -737q23 -29 72 -29zM711 254q0 -266 -267 -266h-106q-55 0 -117 14l-20 -68h-146l49 154q-43 61 -43 166v926q0 266 267 266h108
q59 0 113 -16l22 69h146l-49 -153q43 -61 43 -166v-926z" />
    <glyph glyph-name="oslashacute.alt" horiz-adv-x="704" 
d="M279 1206l75 226h207l-137 -226h-145zM369 950h-33q-76 0 -76 -76l-2 -493l168 549q-18 20 -57 20zM369 174q76 0 75 76l5 495l-173 -552q18 -18 60 -19h33zM401 -12h-90q-57 0 -104 12l-21 -66h-131l45 138q-45 59 -45 166v649q0 250 250 250h88q59 0 103 -15l22 68h133
l-47 -137q47 -63 47 -166v-649q0 -250 -250 -250z" />
    <glyph glyph-name="colon.alt" horiz-adv-x="309" 
d="M258 1122v-272h-207v272h207zM258 590v-273h-207v273h207z" />
    <glyph glyph-name="ampersand.alt" horiz-adv-x="757" 
d="M276 553v-289q0 -84 82 -84h29q84 0 84 84v371h-115q-80 0 -80 -82zM743 635h-63v-381q0 -266 -266 -266h-88q-266 0 -267 266v303q0 150 123 184q-119 45 -119 213v226q0 266 267 266h82q264 0 264 -264v-213h-209v200q0 84 -82 84h-25q-80 0 -79 -84v-264q0 -84 79 -84
h383v-186z" />
    <glyph glyph-name="registered.alt" horiz-adv-x="1009" 
d="M887 324v786q0 152 -65 220t-201 67h-232q-137 0 -202 -68t-64 -219v-786q1 -152 65 -220t201 -67h232q137 -1 201 67t65 220zM940 1110v-786q0 -178 -77 -257t-242 -79h-232q-166 0 -243 79t-76 257v786q0 178 76 257q77 79 243 79h232q167 0 243 -79t76 -257zM582 1032
q0 55 -58 55h-75v-344h67q66 0 66 64v225zM748 541v-348h-164v335q0 63 -68 64h-67v-399h-164v1050h266q195 0 194 -186v-230q0 -118 -92 -153q51 -14 73 -45t22 -88z" />
    <glyph glyph-name="hfjslug" horiz-adv-x="1421" 
d="M872 580q-33 0 -32 34q0 12 9 24t23 11q14 0 24 -11t9 -24q0 -34 -33 -34zM997 612h-22v35h22q20 0 21 -16q-1 -19 -21 -19zM659 823q-33 0 -33 45t33 78l41 -80q-16 -43 -41 -43zM645 1056q0 30 29 29q27 -1 27 -35t-31 -69q-25 45 -25 75zM494 662l28 -97h17l22 70h2
l23 -70h16l29 97h-17l-20 -72h-2l-23 72h-14l-23 -72h-2l-20 72h-16zM270 662v-95h17v66l51 -66h14v95h-16v-66l-51 66h-15zM395 662v-95h70v15h-53v26h47v15h-47v24h53v15h-70zM750 567h16v35l37 60h-19l-26 -46l-27 46h-18l37 -60v-35zM872 565q20 1 34 15q33 33 1 68
q-15 16 -35 16t-34 -16t-14 -34q0 -20 14 -34t34 -15zM1034 631q0 31 -35 31h-41v-95h17v31h24l21 -31h18l-24 35q20 8 20 29zM1071 662v-95h16v25l17 16l31 -41h20l-41 54l37 41h-21l-40 -50h-3v50h-16zM729 1047q0 63 -55 63q-25 0 -41 -18q-35 -39 12 -125
q-47 -37 -47 -83q0 -91 59 -89q39 0 60 49h2l24 -49l25 12l-35 65q13 29 27 80l-27 6q-8 -37 -16 -61h-2l-33 64q47 43 47 86zM985 799q63 0 64 73v281h-33v-281q0 -45 -33 -45q-16 0 -41 11v-31q20 -8 43 -8zM377 1153v-352h31v162h96v-162h31v352h-31v-162h-96v162h-31z
M819 1153v-352h31v160h78v28h-78v135h88v29h-119zM1319 -410h-426l-16 29h-334l-17 -29h-424v621q29 0 48 19q18 19 18 46q0 26 -20 46t-46 20v1135h205l62 161h684l59 -161h207v-1887z" />
    <glyph glyph-name="caron.alt" 
d="M401 1204v250h148l-62 -250h-86z" />
    <glyph glyph-name="acute.cap" 
d="M385 1518l88 182h207l-150 -182h-145z" />
    <glyph glyph-name="hungarumlaut.cap" 
d="M502 1518l76 182h182l-148 -182h-110zM315 1518l76 182h180l-147 -182h-109z" />
    <glyph glyph-name="grave.cap" 
d="M592 1700l90 -182h-150l-151 182h211z" />
    <glyph glyph-name="circumflex.cap" 
d="M596 1716l143 -198h-135l-92 79l-92 -79h-135l143 198h168z" />
    <glyph glyph-name="caron.cap" 
d="M739 1716l-143 -198h-168l-143 198h135l92 -82l92 82h135z" />
    <glyph glyph-name="breve.cap" 
d="M307 1671v37h135v-25q0 -49 58 -49h24q57 0 58 49v25h135v-37q0 -160 -170 -160h-70q-170 0 -170 160z" />
    <glyph glyph-name="tilde.cap" 
d="M379 1720h18q53 0 97 -24l63 -39q27 -14 45 -15q20 0 21 25v53h120v-100q0 -102 -98 -102h-18q-55 0 -95 24l-65 37q-27 14 -46 14t-20 -24v-51h-120v98q0 104 98 104z" />
    <glyph glyph-name="macron.cap" 
d="M295 1665h434v-133h-434v133z" />
    <glyph glyph-name="dieresis.cap" 
d="M471 1686v-168h-174v168h174zM553 1518v168h174v-168h-174z" />
    <glyph glyph-name="dotaccent.cap" 
d="M604 1677v-159h-184v159h184z" />
    <glyph glyph-name="ring.cap" 
d="M666 1620v8q0 63 -84 64h-140q-84 0 -84 -64v-8q0 -63 84 -64h140q84 1 84 64zM719 1630v-10q0 -109 -133 -109h-148q-133 0 -133 109v10q0 109 133 109h148q133 0 133 -109z" />
    <glyph glyph-name="guillemotleft.cap" horiz-adv-x="536" 
d="M248 729l117 346h153l-94 -346l94 -346h-149zM8 729l133 346h154l-111 -346l111 -346h-152z" />
    <glyph glyph-name="guillemotright.cap" horiz-adv-x="536" 
d="M172 1075l117 -346l-121 -346h-150l95 346l-95 346h154zM395 1075l133 -346l-135 -346h-151l110 346l-110 346h153z" />
    <glyph glyph-name="guilsinglleft.cap" horiz-adv-x="362" 
d="M8 729l164 346h174l-139 -346l139 -346h-172z" />
    <glyph glyph-name="guilsinglright.cap" horiz-adv-x="362" 
d="M190 1075l164 -346l-166 -346h-172l140 346l-140 346h174z" />
    <glyph glyph-name="hyphen.cap" horiz-adv-x="448" 
d="M27 827h393v-196h-393v196z" />
    <glyph glyph-name="endash.cap" horiz-adv-x="763" 
d="M27 809h710v-160h-710v160z" />
    <glyph glyph-name="emdash.cap" horiz-adv-x="1171" 
d="M27 809h1099v-160h-1099v160z" />
    <glyph glyph-name="i.dot" horiz-adv-x="335" 
d="M63 0v1124h207v-1124h-207zM59 1219v200h215v-200h-215z" />
    <glyph glyph-name="NUL" horiz-adv-x="0" 
 />
    </font>
</defs>
</svg>
